# Blender v3.0.0 OBJ File: 'clock.blend'
# www.blender.org
mtllib clock.mtl
o Fläche
v -0.033875 -0.497519 -0.004596
v -0.026320 1.192364 -0.004596
v 0.021464 -0.497766 -0.004596
v 0.029018 1.192117 -0.004596
v 0.021464 -0.497766 -0.047472
v -0.033875 -0.497519 -0.047472
v -0.026320 1.192364 -0.027909
v 0.029018 1.192117 -0.027909
vn 0.0000 0.0000 1.0000
vn 0.0001 0.0116 -0.9999
vn 1.0000 -0.0045 -0.0000
vn -1.0000 0.0045 0.0000
vn 0.0045 1.0000 -0.0000
vn -0.0045 -1.0000 0.0000
usemtl RedMetal
s off
f 3//1 2//1 1//1
f 7//2 5//2 6//2
f 3//3 8//3 4//3
f 1//4 7//4 6//4
f 4//5 7//5 2//5
f 1//6 5//6 3//6
f 3//1 4//1 2//1
f 7//2 8//2 5//2
f 3//3 5//3 8//3
f 1//4 2//4 7//4
f 4//5 8//5 7//5
f 1//6 6//6 5//6
