# Blender v3.0.0 OBJ File: ''
# www.blender.org
o Cube.001
v 16.619980 -1.609407 -29.267981
v -16.619980 -1.609380 29.267981
v -16.619980 -1.609404 -29.267981
v 16.619980 0.000010 29.267981
v -16.619980 0.000013 29.267981
v 16.619980 -1.609383 29.267981
v 16.619980 -0.000013 -29.267981
v -16.619980 -0.000010 -29.267981
v 13.672335 -1.280848 -26.672338
v 13.672332 -31.937937 -26.672333
v 10.327665 -1.280847 -26.672338
v 10.327662 -31.937935 -26.672333
v 13.672335 -1.280848 -23.327669
v 13.672332 -31.937937 -23.327663
v 10.327665 -1.280847 -23.327669
v 10.327662 -31.937935 -23.327663
v -10.327665 -1.280846 -26.672338
v -10.327668 -31.937935 -26.672333
v -13.672335 -1.280845 -26.672338
v -13.672338 -31.937933 -26.672333
v -10.327665 -1.280845 -23.327669
v -10.327668 -31.937935 -23.327663
v -13.672335 -1.280845 -23.327669
v -13.672338 -31.937933 -23.327663
v -10.327665 -1.280851 23.327662
v -10.327668 -31.937941 23.327667
v -13.672335 -1.280851 23.327662
v -13.672338 -31.937939 23.327667
v -10.327665 -1.280851 26.672331
v -10.327668 -31.937941 26.672337
v -13.672335 -1.280851 26.672331
v -13.672338 -31.937939 26.672337
v 13.672335 -1.280854 23.327662
v 13.672332 -31.937943 23.327667
v 10.327665 -1.280853 23.327662
v 10.327662 -31.937941 23.327667
v 13.672335 -1.280853 26.672331
v 13.672332 -31.937943 26.672337
v 10.327665 -1.280853 26.672331
v 10.327662 -31.937941 26.672337
vt -1.115038 1.707516
vt -0.931764 2.500000
vt -1.115038 2.500000
vt -0.015398 1.707516
vt 0.167876 2.500000
vt -0.015398 2.500000
vt 2.161227 0.877453
vt 2.344500 1.669937
vt 2.161227 1.669937
vt 0.351149 2.500000
vt 0.167876 1.707516
vt 0.351149 1.707516
vt 0.717695 1.890793
vt 0.534422 1.707520
vt 0.717695 1.707520
vt 0.900969 1.707512
vt 1.084242 1.890785
vt 0.900969 1.890785
vt 2.161227 -0.707516
vt 2.344500 0.084969
vt 2.161227 0.084969
vt 0.351149 1.707516
vt 0.534422 2.500000
vt 0.351149 2.500000
vt 2.161227 1.669937
vt 2.344500 2.462421
vt 2.161227 2.462421
vt -0.015398 2.500000
vt -0.198671 1.707516
vt -0.015398 1.707516
vt 1.267515 1.890785
vt 1.084242 1.707512
vt 1.267515 1.707512
vt 0.717695 1.707520
vt 0.900969 1.890793
vt 0.717695 1.890793
vt 2.161227 0.084969
vt 2.344500 0.877453
vt 2.161227 0.877453
vt -0.381944 1.707516
vt -0.198671 2.500000
vt -0.381944 2.500000
vt -1.298311 1.707516
vt -1.115038 2.500000
vt -1.298311 2.500000
vt -0.748491 2.500000
vt -0.931764 1.707516
vt -0.748491 1.707516
vt 1.634062 1.890785
vt 1.450789 1.707512
vt 1.634062 1.707512
vt 1.267515 1.707520
vt 1.450789 1.890793
vt 1.267515 1.890793
vt -1.481584 1.707516
vt -1.298311 2.500000
vt -1.481584 2.500000
vt -0.565218 1.707516
vt -0.381944 2.500000
vt -0.565218 2.500000
vt 2.161227 -1.500000
vt 2.344500 -0.707516
vt 2.161227 -0.707516
vt -0.565218 2.500000
vt -0.748491 1.707516
vt -0.565218 1.707516
vt 1.817335 1.890793
vt 1.634062 1.707520
vt 1.817335 1.707520
vt 1.817335 1.707512
vt 2.000609 1.890785
vt 1.817335 1.890785
vt -0.931764 1.707516
vt 0.167876 1.707516
vt 2.344500 0.877453
vt 0.167876 2.500000
vt 0.534422 1.890793
vt 1.084242 1.707512
vt 2.344500 -0.707516
vt 0.534422 1.707516
vt 2.344500 1.669937
vt -0.198671 2.500000
vt 1.084242 1.890785
vt 0.900969 1.707520
vt 2.344500 0.084969
vt -0.198671 1.707516
vt -1.115038 1.707516
vt -0.931764 2.500000
vt 1.450789 1.890785
vt 1.450789 1.707520
vt -1.298311 1.707516
vt -0.381944 1.707516
vt 2.344500 -1.500000
vt -0.748491 2.500000
vt 1.634062 1.890793
vt 2.000609 1.707512
vt 2.161223 -1.500000
vt 0.339819 1.707512
vt 0.339819 -1.500000
vt 2.469307 0.321404
vt 2.427705 2.142807
vt 2.427705 0.321404
vt 2.344499 1.707512
vt 2.386102 -1.500000
vt 2.386102 1.707512
vt 0.339819 -1.500000
vt -1.481584 1.707512
vt -1.481584 -1.500000
vt 2.427705 -1.500000
vt 2.386102 1.707512
vt 2.386102 -1.500000
vt 2.469307 -1.500000
vt 2.427705 0.321404
vt 2.427705 -1.500000
vt 2.161223 1.707520
vt 2.469307 2.142807
vt 2.344499 -1.500000
vt 0.339819 1.707520
vt 2.427705 1.707512
vt 2.469307 0.321404
vn -0.0000 -0.0000 -1.0000
vn -1.0000 0.0000 0.0000
vn 0.0000 0.0000 1.0000
vn 1.0000 -0.0000 0.0000
vn 0.0000 1.0000 0.0000
vn -0.0000 -1.0000 0.0000
s off
f 10/1/1 11/2/1 9/3/1
f 12/4/2 15/5/2 11/6/2
f 16/7/3 13/8/3 15/9/3
f 14/10/4 9/11/4 13/12/4
f 15/13/5 9/14/5 11/15/5
f 12/16/6 14/17/6 16/18/6
f 18/19/1 19/20/1 17/21/1
f 20/22/2 23/23/2 19/24/2
f 24/25/3 21/26/3 23/27/3
f 22/28/4 17/29/4 21/30/4
f 23/31/5 17/32/5 19/33/5
f 20/34/6 22/35/6 24/36/6
f 26/37/1 27/38/1 25/39/1
f 28/40/2 31/41/2 27/42/2
f 32/43/3 29/44/3 31/45/3
f 30/46/4 25/47/4 29/48/4
f 31/49/5 25/50/5 27/51/5
f 28/52/6 30/53/6 32/54/6
f 34/55/1 35/56/1 33/57/1
f 36/58/2 39/59/2 35/60/2
f 40/61/3 37/62/3 39/63/3
f 38/64/4 33/65/4 37/66/4
f 39/67/5 33/68/5 35/69/5
f 36/70/6 38/71/6 40/72/6
f 10/1/1 12/73/1 11/2/1
f 12/4/2 16/74/2 15/5/2
f 16/7/3 14/75/3 13/8/3
f 14/10/4 10/76/4 9/11/4
f 15/13/5 13/77/5 9/14/5
f 12/16/6 10/78/6 14/17/6
f 18/19/1 20/79/1 19/20/1
f 20/22/2 24/80/2 23/23/2
f 24/25/3 22/81/3 21/26/3
f 22/28/4 18/82/4 17/29/4
f 23/31/5 21/83/5 17/32/5
f 20/34/6 18/84/6 22/35/6
f 26/37/1 28/85/1 27/38/1
f 28/40/2 32/86/2 31/41/2
f 32/43/3 30/87/3 29/44/3
f 30/46/4 26/88/4 25/47/4
f 31/49/5 29/89/5 25/50/5
f 28/52/6 26/90/6 30/53/6
f 34/55/1 36/91/1 35/56/1
f 36/58/2 40/92/2 39/59/2
f 40/61/3 38/93/3 37/62/3
f 38/64/4 34/94/4 33/65/4
f 39/67/5 37/95/5 33/68/5
f 36/70/6 34/96/6 38/71/6
s 1
f 1/97/6 2/98/6 3/99/6
f 2/100/3 4/101/3 5/102/3
f 6/103/4 7/104/4 4/105/4
f 8/106/5 4/107/5 7/108/5
f 3/109/2 5/110/2 8/111/2
f 1/112/1 8/113/1 7/114/1
f 1/97/6 6/115/6 2/98/6
f 2/100/3 6/116/3 4/101/3
f 6/103/4 1/117/4 7/104/4
f 8/106/5 5/118/5 4/107/5
f 3/109/2 2/119/2 5/110/2
f 1/112/1 3/120/1 8/113/1
