# Blender v3.0.0 OBJ File: 'LIGHT.blend'
# www.blender.org
mtllib lamp.mtl
o ParkLamp_Untitled.189
v 0.241570 0.000000 0.241570
v 0.241570 0.000000 -0.241570
v -0.241570 -0.000000 0.241570
v -0.241570 -0.000000 -0.241570
v 0.200820 0.541173 0.200818
v 0.200820 0.541173 -0.200818
v -0.200818 0.541173 0.200818
v -0.200819 0.541173 -0.200818
v 0.000001 0.541173 -0.176062
v -0.124495 0.541173 -0.124495
v -0.176063 0.541173 -0.000000
v -0.124495 0.541173 0.124495
v 0.000001 0.541173 0.176062
v 0.124495 0.541173 0.124495
v 0.176063 0.541173 -0.000000
v 0.124495 0.541173 -0.124495
v 0.000001 0.757346 -0.176062
v -0.124495 0.757346 -0.124495
v -0.176063 0.757346 -0.000000
v -0.124495 0.757346 0.124495
v 0.000001 0.757346 0.176062
v 0.124495 0.757346 0.124495
v 0.176063 0.757346 -0.000000
v 0.124495 0.757346 -0.124495
v 0.000001 0.859376 -0.112503
v -0.079553 0.859376 -0.079552
v -0.112503 0.859376 -0.000000
v -0.079553 0.859376 0.079552
v 0.000001 0.859376 0.112503
v 0.079553 0.859376 0.079552
v 0.112503 0.859376 -0.000000
v 0.079553 0.859376 -0.079552
v 0.000001 0.859376 -0.082136
v -0.071132 0.859376 -0.041068
v -0.071132 0.859376 0.041068
v 0.000001 0.859376 0.082136
v 0.071132 0.859376 0.041068
v 0.071132 0.859376 -0.041068
v 0.000000 2.501380 -0.045154
v -0.039106 2.501380 -0.022577
v -0.039106 2.501380 0.022577
v 0.000001 2.501380 0.045154
v 0.039106 2.501380 0.022577
v 0.039106 2.501380 -0.022577
v -0.039106 1.680378 -0.022577
v 0.000001 1.680378 -0.045154
v -0.039106 1.680378 0.022577
v 0.000001 1.680378 0.045154
v 0.039106 1.680378 0.022577
v 0.039106 1.680378 -0.022577
v 0.212260 3.053353 0.212261
v 0.212260 3.053353 -0.212261
v -0.212260 3.053353 0.212261
v -0.212260 3.053353 -0.212261
v 0.212260 3.076276 0.212261
v 0.212260 3.076276 -0.212261
v -0.212260 3.076276 0.212261
v -0.212260 3.076276 -0.212261
v 0.101753 3.221451 0.101752
v 0.101753 3.221451 -0.101753
v -0.101754 3.221451 0.101752
v -0.101754 3.221451 -0.101753
v 0.059406 3.221451 0.059405
v 0.059406 3.221451 -0.059405
v -0.059406 3.221451 0.059405
v -0.059406 3.221451 -0.059405
v 0.038610 3.295431 0.038611
v 0.038610 3.295431 -0.038611
v -0.038610 3.295431 0.038611
v -0.038610 3.295431 -0.038611
v 0.000000 2.628026 0.093629
v -0.066206 2.628026 0.066206
v -0.066206 2.513067 0.066206
v 0.000001 2.513067 0.093629
v -0.093629 2.628026 -0.000000
v -0.093629 2.513067 -0.000000
v -0.066206 2.628026 -0.066206
v -0.066206 2.513067 -0.066206
v 0.000000 2.628026 -0.093629
v 0.000000 2.513067 -0.093629
v 0.066205 2.628026 -0.066206
v 0.066205 2.513067 -0.066206
v 0.093628 2.628026 -0.000000
v 0.093628 2.513067 -0.000000
v 0.066205 2.628026 0.066206
v 0.066205 2.513067 0.066206
v 0.000001 2.458808 0.059828
v -0.042304 2.458808 0.042305
v -0.059829 2.458808 -0.000000
v -0.042304 2.458808 -0.042305
v 0.000001 2.458808 -0.059829
v 0.042304 2.458808 -0.042305
v 0.059828 2.458808 -0.000000
v 0.042304 2.458808 0.042305
v 0.123286 2.645128 0.145232
v 0.121471 2.623346 0.121472
v 0.145232 2.645128 0.099576
v 0.148440 2.681965 0.126494
v 0.099576 2.645128 -0.145232
v 0.126493 2.681965 -0.148440
v 0.145232 2.645128 -0.123286
v 0.121471 2.623346 -0.121472
v -0.099576 2.645128 0.145232
v -0.126494 2.681965 0.148440
v -0.145232 2.645128 0.123286
v -0.121472 2.623346 0.121472
v -0.145232 2.645128 -0.099576
v -0.148440 2.681965 -0.126494
v -0.123286 2.645128 -0.145232
v -0.121472 2.623346 -0.121472
v 0.152394 2.979421 0.174341
v 0.184536 3.095562 0.173481
v 0.174340 2.979421 -0.152395
v 0.173480 3.095562 -0.184537
v -0.174341 2.979421 0.152395
v -0.173481 3.095562 0.184537
v -0.152395 2.979421 -0.174341
v -0.184536 3.095562 -0.173481
vt 0.670192 0.912187
vt 0.670192 0.912187
vt 0.670192 0.919035
vt 0.670192 0.919035
vt 0.543365 0.912187
vt 0.543365 0.919035
vt 0.543365 0.912187
vt 0.543365 0.919035
vt 0.299224 0.912187
vt 0.426051 0.912187
vt 0.426051 0.919035
vt 0.299224 0.919035
vt 0.637177 0.962407
vt 0.637177 0.962407
vt 0.576379 0.962407
vt 0.576379 0.962407
vt 0.393037 0.962407
vt 0.332238 0.962407
vt 0.624526 0.962407
vt 0.624526 0.962407
vt 0.618313 0.984508
vt 0.618313 0.984508
vt 0.589030 0.962407
vt 0.595243 0.984508
vt 0.589030 0.962407
vt 0.595243 0.984508
vt 0.344890 0.962407
vt 0.380385 0.962407
vt 0.374173 0.984508
vt 0.351103 0.984508
vt 0.666774 0.161663
vt 0.666774 0.161663
vt 0.546783 0.161663
vt 0.546783 0.161663
vt 0.678948 -0.000015
vt 0.678948 -0.000015
vt 0.534608 -0.000015
vt 0.534608 -0.000015
vt 0.290468 -0.000015
vt 0.434808 -0.000015
vt 0.422633 0.161663
vt 0.302642 0.161663
vt 0.606779 0.161663
vt 0.569585 0.161663
vt 0.569585 0.226245
vt 0.606779 0.226245
vt 0.554179 0.161663
vt 0.554179 0.226245
vt 0.310038 0.161663
vt 0.325444 0.161663
vt 0.325444 0.226245
vt 0.310038 0.226245
vt 0.362638 0.161663
vt 0.362638 0.226245
vt 0.399831 0.161663
vt 0.399831 0.226245
vt 0.415237 0.161663
vt 0.415237 0.226245
vt 0.659378 0.161663
vt 0.643972 0.161663
vt 0.643972 0.226245
vt 0.659378 0.226245
vt 0.583012 0.256727
vt 0.573168 0.256727
vt 0.583012 0.256727
vt 0.338871 0.256727
vt 0.362638 0.256727
vt 0.386404 0.256727
vt 0.630545 0.256727
vt 0.640389 0.256727
vt 0.630545 0.256727
vt 0.606779 0.256727
vt 0.329027 0.256727
vt 0.396248 0.256727
vt 0.585527 0.256727
vt 0.595095 0.502005
vt 0.606778 0.502005
vt 0.606779 0.256727
vt 0.585527 0.256727
vt 0.595095 0.502005
vt 0.362638 0.256727
vt 0.362638 0.502005
vt 0.350955 0.502005
vt 0.341387 0.256727
vt 0.383889 0.256727
vt 0.374321 0.502005
vt 0.628029 0.256727
vt 0.618461 0.502005
vt 0.618461 0.502005
vt 0.628029 0.256727
vt 0.595095 0.747282
vt 0.606778 0.747282
vt 0.595095 0.747282
vt 0.362638 0.747282
vt 0.350955 0.747282
vt 0.374321 0.747282
vt 0.618461 0.747282
vt 0.618461 0.747282
vt 0.570488 0.783720
vt 0.643068 0.783720
vt 0.643068 0.783720
vt 0.570488 0.783720
vt 0.362638 0.785118
vt 0.342858 0.785118
vt 0.342858 0.750774
vt 0.362638 0.750774
vt 0.334666 0.785118
vt 0.334666 0.750774
vt 0.578806 0.785118
vt 0.586999 0.785118
vt 0.586999 0.750774
vt 0.578806 0.750774
vt 0.606778 0.785118
vt 0.606778 0.750774
vt 0.626557 0.785118
vt 0.626557 0.750774
vt 0.634750 0.785118
vt 0.634750 0.750774
vt 0.390609 0.785118
vt 0.382417 0.785118
vt 0.382417 0.750774
vt 0.390609 0.750774
vt 0.594140 0.734564
vt 0.588904 0.734564
vt 0.594140 0.734564
vt 0.606778 0.734564
vt 0.619417 0.734564
vt 0.624652 0.734564
vt 0.619417 0.734564
vt 0.362638 0.734564
vt 0.349999 0.734564
vt 0.375276 0.734564
vt 0.344764 0.734564
vt 0.380512 0.734564
vt 0.399470 0.790227
vt 0.406026 0.790227
vt 0.406985 0.801233
vt 0.636527 0.790227
vt 0.650167 0.790227
vt 0.332889 0.790227
vt 0.319249 0.790227
vt 0.326348 0.783720
vt 0.563390 0.790227
vt 0.569946 0.790227
vt 0.398928 0.783720
vt 0.563390 0.790227
vt 0.650167 0.790227
vt 0.644569 0.801233
vt 0.658863 0.890099
vt 0.408166 0.890099
vt 0.417769 0.924797
vt 0.562431 0.801233
vt 0.561250 0.890099
vt 0.324847 0.801233
vt 0.310553 0.890099
vt 0.658606 0.924797
vt 0.551647 0.924797
vt 0.310810 0.924797
vt 0.661909 0.924797
vt 0.651125 0.801233
vt 0.554693 0.890099
vt 0.554950 0.924797
vn 1.0000 0.0000 -0.0000
vn -0.0000 0.0000 -1.0000
vn -1.0000 0.0000 0.0000
vn 0.0000 0.0000 1.0000
vn 0.7957 0.6057 0.0000
vn -0.0000 0.6057 -0.7957
vn -0.7957 0.6057 0.0000
vn 0.0000 0.6057 0.7957
vn 0.9627 0.2706 0.0000
vn -0.0000 0.2706 -0.9627
vn -0.9627 0.2706 0.0000
vn 0.0000 0.2706 0.9627
vn 0.0000 1.0000 0.0000
vn 0.9972 0.0751 -0.0000
vn -0.0000 0.0751 -0.9972
vn -0.9972 0.0751 0.0000
vn 0.0000 0.0751 0.9972
vn -0.7071 0.0000 -0.7071
vn -0.6830 0.2587 -0.6830
vn 0.0000 0.2587 -0.9660
vn -0.9660 0.2587 -0.0000
vn -0.7071 -0.0000 0.7071
vn -0.6830 0.2587 0.6830
vn 0.0000 0.2587 0.9660
vn 0.7071 0.0000 0.7071
vn 0.6830 0.2587 0.6830
vn 0.9660 0.2587 0.0000
vn 0.7071 0.0000 -0.7071
vn 0.6830 0.2587 -0.6830
vn -0.4011 0.8236 -0.4011
vn -0.5672 0.8236 -0.0000
vn -0.4011 0.8236 0.4011
vn 0.0000 0.8236 0.5672
vn 0.4011 0.8236 0.4011
vn 0.5672 0.8236 0.0000
vn 0.4011 0.8236 -0.4011
vn 0.0000 0.8236 -0.5672
vn -0.8651 0.0450 -0.4995
vn -0.8658 0.0227 -0.4999
vn 0.0000 0.0227 -0.9997
vn 0.0000 0.0450 -0.9990
vn -0.8651 0.0450 0.4995
vn -0.8658 0.0227 0.4999
vn 0.0000 0.0450 0.9990
vn 0.0000 0.0227 0.9997
vn 0.8651 0.0450 0.4995
vn 0.8658 0.0227 0.4999
vn 0.8651 0.0450 -0.4995
vn 0.8658 0.0227 -0.4999
vn -0.8660 -0.0000 -0.5000
vn -0.8660 -0.0000 0.5000
vn 0.8660 0.0000 0.5000
vn 0.8660 0.0000 -0.5000
vn 0.0000 -1.0000 -0.0000
vn -0.6830 -0.2587 0.6830
vn 0.0000 -0.2587 0.9660
vn -0.9660 -0.2587 -0.0000
vn -0.6830 -0.2587 -0.6830
vn 0.0000 -0.2587 -0.9660
vn 0.6830 -0.2587 -0.6830
vn 0.9660 -0.2587 0.0000
vn 0.6830 -0.2587 0.6830
vn -0.4011 -0.8236 0.4011
vn -0.5672 -0.8236 -0.0000
vn -0.4011 -0.8236 -0.4011
vn 0.0000 -0.8236 -0.5672
vn 0.4011 -0.8236 -0.4011
vn 0.5672 -0.8236 0.0000
vn 0.4011 -0.8236 0.4011
vn 0.0000 -0.8236 0.5672
vn 0.5546 -0.5515 0.6231
vn 0.8904 -0.4391 0.1200
vn 0.9126 -0.1608 0.3759
vn 0.1200 -0.4391 -0.8904
vn 0.6231 -0.5515 -0.5546
vn 0.4595 -0.7237 -0.5149
vn -0.1200 -0.4391 0.8904
vn -0.6231 -0.5515 0.5546
vn -0.4595 -0.7237 0.5149
vn -0.8904 -0.4391 -0.1200
vn -0.5546 -0.5515 -0.6231
vn -0.5149 -0.7237 -0.4595
vn 0.5149 -0.7237 0.4595
vn 0.3759 -0.1608 -0.9126
vn 0.9767 -0.0593 -0.2062
vn 0.2062 -0.0593 0.9767
vn 0.0614 -0.0610 0.9962
vn -0.9126 -0.1608 -0.3759
vn -0.2062 -0.0593 -0.9767
vn -0.3759 -0.1608 0.9126
vn -0.9767 -0.0593 0.2062
vn 0.9962 -0.0610 -0.0614
vn -0.0614 -0.0610 -0.9962
vn -0.9962 -0.0610 0.0614
vn 0.9962 -0.0867 0.0000
vn 0.9960 -0.0834 -0.0308
vn -0.0000 -0.0867 -0.9962
vn -0.0308 -0.0834 -0.9960
vn -0.9962 -0.0867 0.0000
vn 0.0308 -0.0834 0.9960
vn -0.9960 -0.0834 0.0308
vn 0.0000 -0.0867 0.9962
usemtl Lamp
s off
f 51/1/1 52/2/1 56/3/1
f 56/3/1 55/4/1 51/1/1
f 52/2/2 54/5/2 58/6/2
f 58/6/2 56/3/2 52/2/2
f 54/5/3 53/7/3 57/8/3
f 57/8/3 58/6/3 54/5/3
f 53/9/4 51/10/4 55/11/4
f 55/11/4 57/12/4 53/9/4
f 55/4/5 56/3/5 60/13/5
f 60/13/5 59/14/5 55/4/5
f 56/3/6 58/6/6 62/15/6
f 62/15/6 60/13/6 56/3/6
f 58/6/7 57/8/7 61/16/7
f 61/16/7 62/15/7 58/6/7
f 57/12/8 55/11/8 59/17/8
f 59/17/8 61/18/8 57/12/8
f 63/19/9 64/20/9 68/21/9
f 68/21/9 67/22/9 63/19/9
f 64/20/10 66/23/10 70/24/10
f 70/24/10 68/21/10 64/20/10
f 66/23/11 65/25/11 69/26/11
f 69/26/11 70/24/11 66/23/11
f 65/27/12 63/28/12 67/29/12
f 67/29/12 69/30/12 65/27/12
f 70/24/13 69/26/13 67/22/13
f 67/22/13 68/21/13 70/24/13
f 62/15/13 61/16/13 59/14/13
f 59/14/13 60/13/13 62/15/13
s 1
f 5/31/13 6/32/13 8/33/13
f 8/33/13 7/34/13 5/31/13
f 1/35/14 2/36/14 6/32/14
f 6/32/14 5/31/14 1/35/14
f 2/36/15 4/37/15 8/33/15
f 8/33/15 6/32/15 2/36/15
f 4/37/16 3/38/16 7/34/16
f 7/34/16 8/33/16 4/37/16
f 3/39/17 1/40/17 5/41/17
f 5/41/17 7/42/17 3/39/17
f 9/43/2 10/44/18 18/45/19
f 18/45/19 17/46/20 9/43/2
f 10/44/18 11/47/3 19/48/21
f 19/48/21 18/45/19 10/44/18
f 11/49/3 12/50/22 20/51/23
f 20/51/23 19/52/21 11/49/3
f 12/50/22 13/53/4 21/54/24
f 21/54/24 20/51/23 12/50/22
f 13/53/4 14/55/25 22/56/26
f 22/56/26 21/54/24 13/53/4
f 14/55/25 15/57/1 23/58/27
f 23/58/27 22/56/26 14/55/25
f 15/59/1 16/60/28 24/61/29
f 24/61/29 23/62/27 15/59/1
f 16/60/28 9/43/2 17/46/20
f 17/46/20 24/61/29 16/60/28
f 26/63/30 27/64/31 28/65/32
f 28/66/32 29/67/33 30/68/34
f 30/69/34 31/70/35 32/71/36
f 28/65/32 30/69/34 32/71/36
f 26/63/30 28/65/32 32/71/36
f 25/72/37 26/63/30 32/71/36
f 17/46/20 18/45/19 26/63/30
f 26/63/30 25/72/37 17/46/20
f 18/45/19 19/48/21 27/64/31
f 27/64/31 26/63/30 18/45/19
f 19/52/21 20/51/23 28/66/32
f 28/66/32 27/73/31 19/52/21
f 20/51/23 21/54/24 29/67/33
f 29/67/33 28/66/32 20/51/23
f 21/54/24 22/56/26 30/68/34
f 30/68/34 29/67/33 21/54/24
f 22/56/26 23/58/27 31/74/35
f 31/74/35 30/68/34 22/56/26
f 23/62/27 24/61/29 32/71/36
f 32/71/36 31/70/35 23/62/27
f 24/61/29 17/46/20 25/72/37
f 25/72/37 32/71/36 24/61/29
f 34/75/38 45/76/39 46/77/40
f 46/77/40 33/78/41 34/75/38
f 35/79/42 47/80/43 45/76/39
f 45/76/39 34/75/38 35/79/42
f 36/81/44 48/82/45 47/83/43
f 47/83/43 35/84/42 36/81/44
f 37/85/46 49/86/47 48/82/45
f 48/82/45 36/81/44 37/85/46
f 38/87/48 50/88/49 49/89/47
f 49/89/47 37/90/46 38/87/48
f 33/78/41 46/77/40 50/88/49
f 50/88/49 38/87/48 33/78/41
f 40/91/50 39/92/2 46/77/40
f 46/77/40 45/76/39 40/91/50
f 41/93/51 40/91/50 45/76/39
f 45/76/39 47/80/43 41/93/51
f 42/94/4 41/95/51 47/83/43
f 47/83/43 48/82/45 42/94/4
f 43/96/52 42/94/4 48/82/45
f 48/82/45 49/86/47 43/96/52
f 44/97/53 43/98/52 49/89/47
f 49/89/47 50/88/49 44/97/53
f 39/92/2 44/97/53 50/88/49
f 50/88/49 46/77/40 39/92/2
f 110/99/54 102/100/54 96/101/54
f 96/101/54 106/102/54 110/99/54
f 51/1/54 53/7/54 54/5/54
f 54/5/54 52/2/54 51/1/54
f 71/103/4 72/104/22 73/105/55
f 73/105/55 74/106/56 71/103/4
f 72/104/22 75/107/3 76/108/57
f 76/108/57 73/105/55 72/104/22
f 75/109/3 77/110/18 78/111/58
f 78/111/58 76/112/57 75/109/3
f 77/110/18 79/113/2 80/114/59
f 80/114/59 78/111/58 77/110/18
f 79/113/2 81/115/28 82/116/60
f 82/116/60 80/114/59 79/113/2
f 81/115/28 83/117/1 84/118/61
f 84/118/61 82/116/60 81/115/28
f 83/119/1 85/120/25 86/121/62
f 86/121/62 84/122/61 83/119/1
f 85/120/25 71/103/4 74/106/56
f 74/106/56 86/121/62 85/120/25
f 88/123/63 89/124/64 90/125/65
f 90/125/65 91/126/66 92/127/67
f 92/127/67 93/128/68 94/129/69
f 90/125/65 92/127/67 94/129/69
f 88/123/63 90/125/65 94/129/69
f 87/130/70 88/131/63 94/132/69
f 74/106/56 73/105/55 88/131/63
f 88/131/63 87/130/70 74/106/56
f 73/105/55 76/108/57 89/133/64
f 89/133/64 88/131/63 73/105/55
f 76/112/57 78/111/58 90/125/65
f 90/125/65 89/124/64 76/112/57
f 78/111/58 80/114/59 91/126/66
f 91/126/66 90/125/65 78/111/58
f 80/114/59 82/116/60 92/127/67
f 92/127/67 91/126/66 80/114/59
f 82/116/60 84/118/61 93/128/68
f 93/128/68 92/127/67 82/116/60
f 84/122/61 86/121/62 94/132/69
f 94/132/69 93/134/68 84/122/61
f 86/121/62 74/106/56 87/130/70
f 87/130/70 94/132/69 86/121/62
f 95/135/71 97/136/72 98/137/73
f 99/138/74 101/139/75 102/100/76
f 103/140/77 105/141/78 106/142/79
f 107/143/80 109/144/81 110/99/82
f 103/140/77 96/145/83 95/135/71
f 107/143/80 106/102/79 105/146/78
f 99/138/74 110/99/82 109/144/81
f 97/147/72 102/100/76 101/139/75
f 100/148/84 113/149/85 101/139/75
f 111/150/86 98/137/73 112/151/87
f 108/152/88 117/153/89 109/144/81
f 104/154/90 115/155/91 105/141/78
f 95/135/71 96/145/83 97/136/72
f 99/138/74 100/148/84 101/139/75
f 103/140/77 104/154/90 105/141/78
f 107/143/80 108/152/88 109/144/81
f 103/140/77 106/142/79 96/145/83
f 107/143/80 110/99/82 106/102/79
f 99/138/74 102/100/76 110/99/82
f 97/147/72 96/101/83 102/100/76
f 100/148/84 114/156/92 113/149/85
f 111/150/86 95/135/71 98/137/73
f 108/152/88 118/157/93 117/153/89
f 104/154/90 116/158/94 115/155/91
usemtl GLASS
f 97/147/72 101/139/95 113/149/85
f 114/156/92 112/159/96 98/160/73
f 99/138/74 109/144/97 117/153/89
f 118/157/93 114/156/98 100/148/84
f 107/143/80 105/146/99 115/161/91
f 112/151/87 116/158/100 104/154/90
f 116/162/94 118/157/101 108/152/88
f 98/160/73 113/149/85 114/156/92
f 100/148/84 117/153/89 118/157/93
f 108/152/88 115/161/91 116/162/94
f 104/154/90 111/150/86 112/151/87
f 103/140/77 95/135/102 111/150/86
f 98/160/73 97/147/72 113/149/85
f 100/148/84 99/138/74 117/153/89
f 108/152/88 107/143/80 115/161/91
f 104/154/90 103/140/77 111/150/86
