# Blender v3.0.0 OBJ File: ''
# www.blender.org
o Cube_Cube.002_Cube_Cube.006
v 5.047245 1.159271 -6.850195
v 5.047245 1.069668 -5.049804
v 5.047245 1.159271 -5.049804
v 6.852755 1.159271 -6.850195
v 5.047245 1.069668 -6.850195
v 6.852755 1.159271 -5.049804
v 6.852755 1.069668 -6.850195
v 6.852755 1.069668 -5.049804
v 5.153500 1.159271 -6.745000
v 6.746500 1.159271 -5.155000
v 6.746500 1.069668 -6.745000
v 5.153500 1.069668 -5.155000
v 5.153500 1.069668 -6.745000
v 6.746500 1.159271 -6.745000
v 6.746500 1.069668 -5.155000
v 5.153500 1.159271 -5.155000
vt 0.375000 0.250000
vt 0.625000 0.000000
vt 0.375000 0.000000
vt 0.375000 0.500000
vt 0.625000 0.250000
vt 0.375000 0.750000
vt 0.625000 0.500000
vt 0.375000 1.000000
vt 0.625000 0.750000
vt 0.125000 0.750000
vt 0.139713 0.514607
vt 0.125000 0.500000
vt 0.360287 0.735393
vt 0.639713 0.514607
vt 0.875000 0.500000
vt 0.860287 0.735393
vt 0.875000 0.750000
vt 0.549930 0.250000
vt 0.500000 0.000000
vt 0.500000 0.250000
vt 0.549930 0.500000
vt 0.500000 0.500000
vt 0.500000 0.750000
vt 0.549930 0.750000
vt 0.500000 1.000000
vt 0.549930 1.000000
vt 0.625000 1.000000
vt 0.139713 0.735393
vt 0.360287 0.514607
vt 0.860287 0.514607
vt 0.639713 0.735393
vt 0.549930 0.000000
vn -1.0000 0.0000 0.0000
vn 0.0000 0.0000 -1.0000
vn 1.0000 0.0000 0.0000
vn 0.0000 0.0000 1.0000
vn 0.0000 1.0000 0.0000
vn -0.0000 -1.0000 0.0000
s 1
f 1/1/1 2/2/1 3/3/1
f 4/4/2 5/5/2 1/1/2
f 6/6/3 7/7/3 4/4/3
f 3/8/4 8/9/4 6/6/4
f 3/10/5 9/11/5 1/12/5
f 6/6/5 4/4/5 10/13/5
f 7/7/6 8/9/6 11/14/6
f 5/15/6 12/16/6 2/17/6
f 9/18/3 12/19/3 13/20/3
f 14/21/4 13/20/4 11/22/4
f 14/21/1 15/23/1 10/24/1
f 10/24/2 12/25/2 16/26/2
f 1/1/1 5/5/1 2/2/1
f 4/4/2 7/7/2 5/5/2
f 6/6/3 8/9/3 7/7/3
f 3/8/4 2/27/4 8/9/4
f 3/10/5 16/28/5 9/11/5
f 10/13/5 16/28/5 3/10/5
f 4/4/5 1/12/5 14/29/5
f 1/12/5 9/11/5 14/29/5
f 10/13/5 3/10/5 6/6/5
f 4/4/5 14/29/5 10/13/5
f 11/14/6 13/30/6 5/15/6
f 8/9/6 2/17/6 15/31/6
f 2/17/6 12/16/6 15/31/6
f 11/14/6 5/15/6 7/7/6
f 8/9/6 15/31/6 11/14/6
f 5/15/6 13/30/6 12/16/6
f 9/18/3 16/32/3 12/19/3
f 14/21/4 9/18/4 13/20/4
f 14/21/1 11/22/1 15/23/1
f 10/24/2 15/23/2 12/25/2
