# Blender v3.0.0 OBJ File: ''
# www.blender.org
o Cube_Cube.001
v -3.352500 -0.000000 1.500000
v -3.352500 3.497675 -1.499999
v -3.352500 0.000000 -1.500000
v -3.352500 3.497674 1.500001
v 3.352500 3.497675 -1.499999
v 3.352500 3.497674 1.500001
v 3.352500 0.000000 -1.500000
v 3.352500 -0.000000 1.500000
v -1.088660 3.841002 0.000001
v -1.097327 3.497676 0.084754
v -1.088660 3.497676 0.000001
v 1.193477 3.855849 -0.335479
v 1.260808 3.497679 -0.394481
v 1.193477 3.497679 -0.335479
v 1.420982 3.855849 0.465323
v 1.337628 3.497679 0.438325
v 1.420982 3.497679 0.465323
v -1.097327 3.841002 0.084754
v -1.122998 3.497676 0.166249
v 1.138218 3.855849 -0.263584
v 1.138218 3.497679 -0.263584
v -1.164685 3.841002 0.241355
v -1.164685 3.497676 0.241355
v -1.220787 3.497676 0.307186
v 1.507666 3.855849 0.474440
v 1.507666 3.497679 0.474440
v -1.220787 3.841002 0.307186
v -1.289147 3.497676 0.361213
v 1.097157 3.855849 -0.181559
v 1.097157 3.497679 -0.181559
v -1.289147 3.841002 0.361213
v -1.367139 3.497676 0.401357
v -1.367139 3.841002 0.401357
v -1.451764 3.497676 0.426079
v 1.594350 3.855849 0.465323
v 1.594350 3.497679 0.465323
v -1.451764 3.841002 0.426079
v -1.539771 3.497676 0.434426
v 1.071872 3.855849 -0.092558
v 1.071872 3.497679 -0.092558
v -1.539771 3.841002 0.434426
v -1.627779 3.497676 0.426079
v -1.627779 3.841002 0.426079
v -1.712404 3.497676 0.401357
v 1.677703 3.855849 0.438325
v 1.677703 3.497679 0.438325
v -1.712404 3.841002 0.401357
v -1.790397 3.497676 0.361213
v 1.063334 3.855849 0.000001
v 1.063334 3.497679 0.000001
v -1.790397 3.841002 0.361213
v -1.858757 3.497676 0.307186
v -1.858757 3.841002 0.307186
v -1.914858 3.497676 0.241355
v 1.754523 3.855849 0.394483
v 1.754523 3.497679 0.394483
v -1.914858 3.841002 0.241355
v -1.956546 3.497676 0.166249
v 1.071872 3.855849 0.092560
v 1.071872 3.497679 0.092560
v -1.956546 3.841002 0.166249
v -1.982217 3.497676 0.084752
v -1.982217 3.841002 0.084754
v -1.990885 3.497676 0.000001
v 1.821856 3.855849 0.335480
v 1.821856 3.497679 0.335480
v -1.990885 3.841002 0.000001
v -1.982217 3.497676 -0.084751
v 1.097157 3.855849 0.181561
v 1.097157 3.497679 0.181561
v -1.982217 3.841002 -0.084751
v -1.956546 3.497676 -0.166246
v -1.956546 3.841002 -0.166246
v -1.914858 3.497676 -0.241352
v 1.877114 3.855849 0.263585
v 1.877114 3.497679 0.263585
v -1.914858 3.841002 -0.241352
v -1.858757 3.497676 -0.307184
v 1.138218 3.855849 0.263585
v 1.138218 3.497679 0.263585
v -1.858757 3.841002 -0.307184
v -1.790397 3.497676 -0.361210
v -1.790397 3.841002 -0.361210
v -1.712404 3.497676 -0.401356
v 1.918175 3.855849 0.181561
v 1.918175 3.497679 0.181561
v -1.712404 3.841002 -0.401356
v -1.627779 3.497676 -0.426077
v 1.193477 3.855849 0.335480
v 1.193477 3.497679 0.335480
v -1.627779 3.841002 -0.426077
v -1.539771 3.497676 -0.434425
v -1.539771 3.841002 -0.434425
v -1.451764 3.497676 -0.426077
v 1.943460 3.855849 0.092560
v 1.943460 3.497679 0.092560
v -1.451764 3.841002 -0.426077
v -1.367137 3.497676 -0.401356
v 1.260808 3.855849 0.394483
v 1.260808 3.497679 0.394483
v -1.367137 3.841002 -0.401356
v -1.289147 3.497676 -0.361210
v -1.289147 3.841002 -0.361210
v -1.220787 3.497676 -0.307184
v 1.951998 3.855849 0.000001
v 1.951998 3.497679 0.000001
v -1.220787 3.841002 -0.307184
v -1.164685 3.497676 -0.241352
v 1.337628 3.855849 0.438325
v -1.164685 3.841002 -0.241352
v -1.122998 3.497676 -0.166246
v -1.122998 3.841002 -0.166246
v -1.097327 3.497676 -0.084751
v -1.097327 3.841002 -0.084751
v 1.260808 3.855849 -0.394481
v 1.337628 3.497679 -0.438323
v 1.337628 3.855849 -0.438323
v 1.420982 3.497679 -0.465322
v 1.420982 3.855849 -0.465322
v 1.507666 3.497679 -0.474439
v 1.507666 3.855849 -0.474439
v 1.594350 3.497679 -0.465322
v 1.594350 3.855849 -0.465322
v 1.677705 3.497679 -0.438323
v 1.677705 3.855849 -0.438323
v 1.754523 3.497679 -0.394481
v 1.754523 3.855849 -0.394481
v 1.821856 3.497679 -0.335479
v 1.821856 3.855849 -0.335479
v 1.877114 3.497679 -0.263584
v 1.877114 3.855849 -0.263584
v 1.918175 3.497679 -0.181559
v 1.918175 3.855849 -0.181559
v 1.943460 3.497679 -0.092557
v 1.943460 3.855849 -0.092557
v -1.122998 3.841002 0.166249
vt 0.625000 0.000000
vt 0.375000 0.250000
vt 0.375000 0.000000
vt 0.625000 0.250000
vt 0.375000 0.500000
vt 0.625000 0.500000
vt 0.375000 0.750000
vt 0.625000 0.750000
vt 0.375000 1.000000
vt 0.125000 0.750000
vt 0.125000 0.500000
vt 0.875000 0.500000
vt 1.000000 1.000000
vt 0.968750 0.500000
vt 1.000000 0.500000
vt 1.000000 1.000000
vt 0.968750 0.500000
vt 1.000000 0.500000
vt 0.968750 1.000000
vt 0.937500 0.500000
vt 0.968750 0.500000
vt 0.968750 1.000000
vt 0.937500 0.500000
vt 0.937500 1.000000
vt 0.906250 0.500000
vt 0.937500 0.500000
vt 0.906250 1.000000
vt 0.906250 0.500000
vt 0.875000 0.500000
vt 0.906250 1.000000
vt 0.875000 0.500000
vt 0.906250 0.500000
vt 0.875000 1.000000
vt 0.843750 0.500000
vt 0.875000 1.000000
vt 0.843750 0.500000
vt 0.875000 0.500000
vt 0.843750 1.000000
vt 0.812500 0.500000
vt 0.812500 1.000000
vt 0.781250 0.500000
vt 0.843750 1.000000
vt 0.812500 0.500000
vt 0.843750 0.500000
vt 0.781250 1.000000
vt 0.750000 0.500000
vt 0.812500 1.000000
vt 0.781250 0.500000
vt 0.812500 0.500000
vt 0.750000 1.000000
vt 0.718750 0.500000
vt 0.718750 1.000000
vt 0.687500 0.500000
vt 0.781250 1.000000
vt 0.750000 0.500000
vt 0.781250 0.500000
vt 0.687500 1.000000
vt 0.656250 0.500000
vt 0.750000 1.000000
vt 0.718750 0.500000
vt 0.750000 0.500000
vt 0.656250 1.000000
vt 0.625000 0.500000
vt 0.625000 1.000000
vt 0.593750 0.500000
vt 0.718750 1.000000
vt 0.687500 0.500000
vt 0.718750 0.500000
vt 0.593750 1.000000
vt 0.562500 0.500000
vt 0.687500 1.000000
vt 0.656250 0.500000
vt 0.687500 0.500000
vt 0.562500 1.000000
vt 0.531250 0.500000
vt 0.531250 1.000000
vt 0.500000 0.500000
vt 0.656250 1.000000
vt 0.625000 0.500000
vt 0.656250 0.500000
vt 0.500000 1.000000
vt 0.468750 0.500000
vt 0.625000 1.000000
vt 0.593750 0.500000
vt 0.625000 0.500000
vt 0.468750 1.000000
vt 0.437500 0.500000
vt 0.437500 1.000000
vt 0.406250 0.500000
vt 0.593750 1.000000
vt 0.562500 0.500000
vt 0.593750 0.500000
vt 0.406250 1.000000
vt 0.375000 0.500000
vt 0.562500 1.000000
vt 0.531250 0.500000
vt 0.562500 0.500000
vt 0.375000 1.000000
vt 0.343750 0.500000
vt 0.343750 1.000000
vt 0.312500 0.500000
vt 0.531250 1.000000
vt 0.500000 0.500000
vt 0.531250 0.500000
vt 0.312500 1.000000
vt 0.281250 0.500000
vt 0.500000 1.000000
vt 0.468750 0.500000
vt 0.500000 0.500000
vt 0.281250 1.000000
vt 0.250000 0.500000
vt 0.250000 1.000000
vt 0.218750 0.500000
vt 0.468750 1.000000
vt 0.437500 0.500000
vt 0.468750 0.500000
vt 0.218750 1.000000
vt 0.187500 0.500000
vt 0.437500 1.000000
vt 0.406250 0.500000
vt 0.437500 0.500000
vt 0.187500 1.000000
vt 0.156250 0.500000
vt 0.156250 1.000000
vt 0.125000 0.500000
vt 0.406250 1.000000
vt 0.375000 0.500000
vt 0.406250 0.500000
vt 0.125000 1.000000
vt 0.093750 0.500000
vt 0.375000 1.000000
vt 0.343750 0.500000
vt 0.375000 0.500000
vt 0.093750 1.000000
vt 0.062500 0.500000
vt 0.419706 0.419706
vt 0.383337 0.449553
vt 0.419706 0.080294
vt 0.062500 1.000000
vt 0.031250 0.500000
vt 0.031250 1.000000
vt 0.000000 0.500000
vt 0.616663 0.449553
vt 0.658156 0.471731
vt 0.616663 0.050447
vt 0.343750 1.000000
vt 0.312500 0.500000
vt 0.343750 0.500000
vt 0.312500 1.000000
vt 0.281250 0.500000
vt 0.281250 1.000000
vt 0.250000 0.500000
vt 0.250000 1.000000
vt 0.218750 0.500000
vt 0.218750 1.000000
vt 0.187500 0.500000
vt 0.187500 1.000000
vt 0.156250 0.500000
vt 0.156250 1.000000
vt 0.125000 0.500000
vt 0.125000 1.000000
vt 0.093750 0.500000
vt 0.093750 1.000000
vt 0.062500 0.500000
vt 0.985388 0.296822
vt 0.990000 0.250000
vt 0.985388 0.203178
vt 0.062500 1.000000
vt 0.031250 0.500000
vt 0.031250 1.000000
vt 0.000000 0.500000
vt 0.028269 0.158156
vt 0.014612 0.296822
vt 0.014612 0.203178
vt 0.625000 1.000000
vt 0.875000 0.750000
vt 0.968750 1.000000
vt 0.937500 1.000000
vt 0.937500 1.000000
vt 0.906250 1.000000
vt 0.875000 1.000000
vt 0.843750 1.000000
vt 0.812500 1.000000
vt 0.781250 1.000000
vt 0.750000 1.000000
vt 0.718750 1.000000
vt 0.687500 1.000000
vt 0.656250 1.000000
vt 0.625000 1.000000
vt 0.593750 1.000000
vt 0.562500 1.000000
vt 0.531250 1.000000
vt 0.500000 1.000000
vt 0.468750 1.000000
vt 0.437500 1.000000
vt 0.406250 1.000000
vt 0.375000 1.000000
vt 0.343750 1.000000
vt 0.341844 0.471731
vt 0.296822 0.485388
vt 0.296822 0.014612
vt 0.250000 0.490000
vt 0.250000 0.010000
vt 0.203178 0.485389
vt 0.203178 0.014612
vt 0.158156 0.471731
vt 0.158156 0.028269
vt 0.116663 0.449553
vt 0.080294 0.419706
vt 0.116663 0.050447
vt 0.050447 0.383337
vt 0.080294 0.080294
vt 0.028269 0.341844
vt 0.050447 0.116663
vt 0.014612 0.296822
vt 0.028269 0.158156
vt 0.010000 0.250000
vt 0.014612 0.203178
vt 0.341844 0.028269
vt 0.383337 0.050447
vt 0.449553 0.116663
vt 0.471731 0.158156
vt 0.449553 0.383337
vt 0.485388 0.203178
vt 0.471731 0.341844
vt 0.490000 0.250000
vt 0.485388 0.296822
vt 0.000000 1.000000
vt 0.703178 0.485389
vt 0.750000 0.490000
vt 0.750000 0.010000
vt 0.796822 0.485388
vt 0.796822 0.014612
vt 0.841844 0.471731
vt 0.883337 0.449553
vt 0.841844 0.028269
vt 0.919706 0.419706
vt 0.919706 0.080294
vt 0.949553 0.383337
vt 0.949553 0.116663
vt 0.971731 0.341844
vt 0.985388 0.296822
vt 0.971731 0.158156
vt 0.990000 0.250000
vt 0.985389 0.203178
vt 0.883337 0.050447
vt 0.703178 0.014612
vt 0.658156 0.028269
vt 0.580294 0.080294
vt 0.580294 0.419706
vt 0.550447 0.116663
vt 0.550447 0.383337
vt 0.528269 0.158156
vt 0.514612 0.203178
vt 0.528269 0.341844
vt 0.510000 0.250000
vt 0.514612 0.296822
vt 0.971731 0.158156
vt 0.971731 0.341844
vt 0.949553 0.116663
vt 0.949553 0.383337
vt 0.919706 0.080294
vt 0.883337 0.050447
vt 0.919706 0.419706
vt 0.841844 0.028269
vt 0.841844 0.471731
vt 0.796822 0.014612
vt 0.796822 0.485388
vt 0.750000 0.010000
vt 0.703178 0.014612
vt 0.750000 0.490000
vt 0.658156 0.028269
vt 0.658156 0.471731
vt 0.616663 0.050447
vt 0.616663 0.449553
vt 0.580294 0.080294
vt 0.550447 0.116663
vt 0.580294 0.419706
vt 0.528269 0.158156
vt 0.528269 0.341844
vt 0.514612 0.203178
vt 0.514612 0.296822
vt 0.510000 0.250000
vt 0.550447 0.383337
vt 0.703178 0.485388
vt 0.883337 0.449553
vt 0.000000 1.000000
vt 0.050447 0.116663
vt 0.050447 0.383337
vt 0.080294 0.080294
vt 0.080294 0.419706
vt 0.116663 0.050447
vt 0.116663 0.449553
vt 0.158156 0.028269
vt 0.158156 0.471731
vt 0.203178 0.014612
vt 0.250000 0.010000
vt 0.203178 0.485388
vt 0.296822 0.014612
vt 0.250000 0.490000
vt 0.341844 0.028269
vt 0.296822 0.485388
vt 0.383337 0.050447
vt 0.383337 0.449553
vt 0.419706 0.080294
vt 0.419706 0.419706
vt 0.449553 0.116663
vt 0.449553 0.383337
vt 0.471731 0.158156
vt 0.471731 0.341844
vt 0.485388 0.203178
vt 0.490000 0.250000
vt 0.485388 0.296822
vt 0.341844 0.471731
vt 0.028269 0.341844
vt 0.010000 0.250000
vn -1.0000 -0.0000 0.0000
vn 0.0000 1.0000 0.0000
vn 1.0000 -0.0000 0.0000
vn 0.0000 -1.0000 -0.0000
vn 0.0000 0.0000 -1.0000
vn 0.0000 -0.0000 1.0000
vn 0.9948 0.0000 0.1017
vn -0.6591 0.0000 -0.7521
vn -0.3081 -0.0000 0.9513
vn 0.9538 0.0000 0.3004
vn -0.7929 -0.0000 -0.6094
vn 0.8743 0.0000 0.4853
vn 0.7611 0.0000 0.6486
vn -0.1046 -0.0000 0.9945
vn 0.6201 -0.0000 0.7846
vn -0.8942 0.0000 -0.4476
vn 0.4577 -0.0000 0.8891
vn 0.2804 -0.0000 0.9599
vn 0.1046 -0.0000 0.9945
vn 0.0944 -0.0000 0.9955
vn -0.9619 -0.0000 -0.2733
vn -0.0944 -0.0000 0.9955
vn -0.2804 -0.0000 0.9599
vn 0.3081 -0.0000 0.9513
vn -0.4577 -0.0000 0.8891
vn -0.9958 -0.0000 -0.0919
vn -0.6201 -0.0000 0.7846
vn -0.7611 -0.0000 0.6486
vn 0.4957 -0.0000 0.8685
vn -0.8743 0.0000 0.4853
vn -0.9958 -0.0000 0.0919
vn -0.9538 -0.0000 0.3004
vn -0.9948 0.0000 0.1017
vn 0.6590 -0.0000 0.7521
vn -0.9948 -0.0000 -0.1017
vn -0.9619 -0.0000 0.2733
vn -0.9538 0.0000 -0.3004
vn -0.8743 0.0000 -0.4853
vn 0.7929 -0.0000 0.6094
vn -0.7611 0.0000 -0.6486
vn -0.8942 -0.0000 0.4476
vn -0.6201 0.0000 -0.7846
vn -0.4577 0.0000 -0.8891
vn 0.8942 0.0000 0.4476
vn -0.2804 0.0000 -0.9599
vn -0.7929 -0.0000 0.6094
vn -0.0944 0.0000 -0.9955
vn 0.0944 0.0000 -0.9955
vn 0.9619 0.0000 0.2733
vn 0.2804 0.0000 -0.9599
vn -0.6591 -0.0000 0.7521
vn 0.4577 0.0000 -0.8891
vn 0.6201 0.0000 -0.7846
vn 0.6200 0.0000 -0.7846
vn 0.9958 -0.0000 0.0919
vn 0.7611 -0.0000 -0.6486
vn -0.4957 -0.0000 0.8685
vn 0.8743 0.0000 -0.4853
vn 0.9538 0.0000 -0.3004
vn 0.9948 0.0000 -0.1017
vn -0.4957 0.0000 -0.8685
vn -0.3081 0.0000 -0.9513
vn -0.1046 0.0000 -0.9945
vn 0.1046 0.0000 -0.9945
vn 0.3081 0.0000 -0.9513
vn 0.4957 0.0000 -0.8685
vn 0.6590 0.0000 -0.7521
vn 0.7929 -0.0000 -0.6094
vn 0.8942 0.0000 -0.4476
vn 0.9619 0.0000 -0.2733
vn 0.9958 0.0000 -0.0919
s 1
f 1/1/1 2/2/1 3/3/1
f 4/4/2 5/5/2 2/2/2
f 6/6/3 7/7/3 5/5/3
f 8/8/4 3/9/4 7/7/4
f 5/5/5 3/10/5 2/11/5
f 4/12/6 8/8/6 6/6/6
f 9/13/7 10/14/7 11/15/7
f 12/16/8 13/17/8 14/18/8
f 15/19/9 16/20/9 17/21/9
f 18/22/10 19/23/10 10/14/10
f 20/24/11 14/25/11 21/26/11
f 19/23/12 22/27/12 23/28/12
f 22/27/13 24/29/13 23/28/13
f 25/30/14 17/31/14 26/32/14
f 27/33/15 28/34/15 24/29/15
f 29/35/16 21/36/16 30/37/16
f 31/38/17 32/39/17 28/34/17
f 33/40/18 34/41/18 32/39/18
f 35/42/19 26/43/19 36/44/19
f 37/45/20 38/46/20 34/41/20
f 39/47/21 30/48/21 40/49/21
f 41/50/22 42/51/22 38/46/22
f 43/52/23 44/53/23 42/51/23
f 45/54/24 36/55/24 46/56/24
f 47/57/25 48/58/25 44/53/25
f 49/59/26 40/60/26 50/61/26
f 51/62/27 52/63/27 48/58/27
f 53/64/28 54/65/28 52/63/28
f 55/66/29 46/67/29 56/68/29
f 57/69/30 58/70/30 54/65/30
f 59/71/31 50/72/31 60/73/31
f 61/74/32 62/75/32 58/70/32
f 63/76/33 64/77/33 62/75/33
f 65/78/34 56/79/34 66/80/34
f 67/81/35 68/82/35 64/77/35
f 69/83/36 60/84/36 70/85/36
f 71/86/37 72/87/37 68/82/37
f 73/88/38 74/89/38 72/87/38
f 75/90/39 66/91/39 76/92/39
f 77/93/40 78/94/40 74/89/40
f 79/95/41 70/96/41 80/97/41
f 81/98/42 82/99/42 78/94/42
f 83/100/43 84/101/43 82/99/43
f 85/102/44 76/103/44 86/104/44
f 87/105/45 88/106/45 84/101/45
f 89/107/46 80/108/46 90/109/46
f 91/110/47 92/111/47 88/106/47
f 93/112/48 94/113/48 92/111/48
f 95/114/49 86/115/49 96/116/49
f 97/117/50 98/118/50 94/113/50
f 99/119/51 90/120/51 100/121/51
f 101/122/52 102/123/52 98/118/52
f 103/124/53 104/125/54 102/123/54
f 105/126/55 96/127/55 106/128/55
f 107/129/56 108/130/56 104/125/56
f 109/131/57 100/132/57 16/133/57
f 110/134/58 111/135/58 108/130/58
f 27/136/2 22/137/2 53/138/2
f 112/139/59 113/140/59 111/135/59
f 114/141/60 11/142/60 113/140/60
f 108/143/4 111/144/4 74/145/4
f 115/146/61 116/147/61 13/148/61
f 117/149/62 118/150/62 116/147/62
f 119/151/63 120/152/63 118/150/63
f 121/153/64 122/154/64 120/152/64
f 123/155/65 124/156/65 122/154/65
f 125/157/66 126/158/66 124/156/66
f 127/159/67 128/160/67 126/158/67
f 129/161/68 130/162/68 128/160/68
f 131/163/69 132/164/69 130/162/69
f 36/165/4 26/166/4 17/167/4
f 133/168/70 134/169/70 132/164/70
f 135/170/71 106/171/71 134/169/71
f 117/172/2 123/173/2 119/174/2
f 1/1/1 4/4/1 2/2/1
f 4/4/2 6/6/2 5/5/2
f 6/6/3 8/8/3 7/7/3
f 8/8/4 1/175/4 3/9/4
f 5/5/5 7/7/5 3/10/5
f 4/12/6 1/176/6 8/8/6
f 9/13/7 18/22/7 10/14/7
f 12/16/8 115/177/8 13/17/8
f 15/19/9 109/178/9 16/20/9
f 18/22/10 136/179/10 19/23/10
f 20/24/11 12/180/11 14/25/11
f 19/23/12 136/179/12 22/27/12
f 22/27/13 27/33/13 24/29/13
f 25/30/14 15/181/14 17/31/14
f 27/33/15 31/38/15 28/34/15
f 29/35/16 20/182/16 21/36/16
f 31/38/17 33/40/17 32/39/17
f 33/40/18 37/45/18 34/41/18
f 35/42/19 25/183/19 26/43/19
f 37/45/20 41/50/20 38/46/20
f 39/47/21 29/184/21 30/48/21
f 41/50/22 43/52/22 42/51/22
f 43/52/23 47/57/23 44/53/23
f 45/54/24 35/185/24 36/55/24
f 47/57/25 51/62/25 48/58/25
f 49/59/26 39/186/26 40/60/26
f 51/62/27 53/64/27 52/63/27
f 53/64/28 57/69/28 54/65/28
f 55/66/29 45/187/29 46/67/29
f 57/69/30 61/74/30 58/70/30
f 59/71/31 49/188/31 50/72/31
f 61/74/32 63/76/32 62/75/32
f 63/76/33 67/81/33 64/77/33
f 65/78/34 55/189/34 56/79/34
f 67/81/35 71/86/35 68/82/35
f 69/83/36 59/190/36 60/84/36
f 71/86/37 73/88/37 72/87/37
f 73/88/38 77/93/38 74/89/38
f 75/90/39 65/191/39 66/91/39
f 77/93/40 81/98/40 78/94/40
f 79/95/41 69/192/41 70/96/41
f 81/98/42 83/100/42 82/99/42
f 83/100/43 87/105/43 84/101/43
f 85/102/44 75/193/44 76/103/44
f 87/105/45 91/110/45 88/106/45
f 89/107/46 79/194/46 80/108/46
f 91/110/47 93/112/47 92/111/47
f 93/112/48 97/117/48 94/113/48
f 95/114/49 85/195/49 86/115/49
f 97/117/50 101/122/50 98/118/50
f 99/119/51 89/196/51 90/120/51
f 101/122/52 103/124/52 102/123/52
f 103/124/53 107/129/53 104/125/54
f 105/126/55 95/197/55 96/127/55
f 107/129/56 110/134/56 108/130/56
f 109/131/57 99/198/57 100/132/57
f 110/134/58 112/139/58 111/135/58
f 136/199/2 18/200/2 63/201/2
f 18/200/2 9/202/2 67/203/2
f 9/202/2 114/204/2 71/205/2
f 114/204/2 112/206/2 73/207/2
f 112/206/2 110/208/2 73/207/2
f 110/208/2 107/209/2 77/210/2
f 73/207/2 110/208/2 77/210/2
f 107/209/2 103/211/2 81/212/2
f 103/211/2 101/213/2 83/214/2
f 81/212/2 103/211/2 83/214/2
f 101/213/2 97/215/2 87/216/2
f 97/215/2 93/217/2 91/218/2
f 87/216/2 97/215/2 91/218/2
f 87/216/2 83/214/2 101/213/2
f 81/212/2 77/210/2 107/209/2
f 73/207/2 71/205/2 114/204/2
f 71/205/2 67/203/2 9/202/2
f 67/203/2 63/201/2 18/200/2
f 63/201/2 61/219/2 136/199/2
f 61/219/2 57/220/2 136/199/2
f 57/220/2 53/138/2 22/137/2
f 136/199/2 57/220/2 22/137/2
f 53/138/2 51/221/2 27/136/2
f 51/221/2 47/222/2 31/223/2
f 27/136/2 51/221/2 31/223/2
f 47/222/2 43/224/2 33/225/2
f 43/224/2 41/226/2 37/227/2
f 33/225/2 43/224/2 37/227/2
f 33/225/2 31/223/2 47/222/2
f 112/139/59 114/141/59 113/140/59
f 114/141/60 9/228/60 11/142/60
f 113/229/4 11/230/4 64/231/4
f 11/230/4 10/232/4 62/233/4
f 10/232/4 19/234/4 62/233/4
f 19/234/4 23/235/4 58/236/4
f 62/233/4 19/234/4 58/236/4
f 23/235/4 24/237/4 52/238/4
f 24/237/4 28/239/4 48/240/4
f 28/239/4 32/241/4 48/240/4
f 32/241/4 34/242/4 44/243/4
f 48/240/4 32/241/4 44/243/4
f 34/242/4 38/244/4 42/245/4
f 42/245/4 44/243/4 34/242/4
f 48/240/4 52/238/4 24/237/4
f 52/238/4 54/246/4 23/235/4
f 54/246/4 58/236/4 23/235/4
f 62/233/4 64/231/4 11/230/4
f 64/231/4 68/247/4 113/229/4
f 68/247/4 72/248/4 113/229/4
f 72/248/4 74/145/4 111/144/4
f 113/229/4 72/248/4 111/144/4
f 74/145/4 78/249/4 104/250/4
f 78/249/4 82/251/4 102/252/4
f 82/251/4 84/253/4 102/252/4
f 84/253/4 88/254/4 98/255/4
f 102/252/4 84/253/4 98/255/4
f 88/254/4 92/256/4 94/257/4
f 94/257/4 98/255/4 88/254/4
f 102/252/4 104/250/4 78/249/4
f 104/250/4 108/143/4 74/145/4
f 115/146/61 117/149/61 116/147/61
f 117/149/62 119/151/62 118/150/62
f 119/151/63 121/153/63 120/152/63
f 121/153/64 123/155/64 122/154/64
f 123/155/65 125/157/65 124/156/65
f 125/157/66 127/159/66 126/158/66
f 127/159/67 129/161/67 128/160/67
f 129/161/68 131/163/68 130/162/68
f 131/163/69 133/168/69 132/164/69
f 17/167/4 16/258/4 46/259/4
f 16/258/4 100/260/4 56/261/4
f 100/260/4 90/262/4 56/261/4
f 90/262/4 80/263/4 66/264/4
f 56/261/4 90/262/4 66/264/4
f 80/263/4 70/265/4 86/266/4
f 70/265/4 60/267/4 96/268/4
f 60/267/4 50/269/4 96/268/4
f 50/269/4 40/270/4 106/271/4
f 96/268/4 50/269/4 106/271/4
f 40/270/4 30/272/4 132/273/4
f 30/272/4 21/274/4 130/275/4
f 21/274/4 14/276/4 130/275/4
f 14/276/4 13/277/4 128/278/4
f 130/275/4 14/276/4 128/278/4
f 13/277/4 116/279/4 124/280/4
f 116/279/4 118/281/4 122/282/4
f 118/281/4 120/283/4 122/282/4
f 122/282/4 124/280/4 116/279/4
f 124/280/4 126/284/4 13/277/4
f 126/284/4 128/278/4 13/277/4
f 130/275/4 132/273/4 30/272/4
f 132/273/4 134/285/4 40/270/4
f 134/285/4 106/271/4 40/270/4
f 96/268/4 86/266/4 70/265/4
f 86/266/4 76/286/4 80/263/4
f 76/286/4 66/264/4 80/263/4
f 56/261/4 46/259/4 16/258/4
f 46/259/4 36/165/4 17/167/4
f 133/168/70 135/170/70 134/169/70
f 135/170/71 105/287/71 106/171/71
f 117/172/2 115/288/2 127/289/2
f 115/288/2 12/290/2 129/291/2
f 12/290/2 20/292/2 131/293/2
f 20/292/2 29/294/2 133/295/2
f 29/294/2 39/296/2 133/295/2
f 39/296/2 49/297/2 135/298/2
f 133/295/2 39/296/2 135/298/2
f 49/297/2 59/299/2 105/300/2
f 59/299/2 69/301/2 95/302/2
f 105/300/2 59/299/2 95/302/2
f 69/301/2 79/303/2 75/304/2
f 79/303/2 89/305/2 65/306/2
f 89/305/2 99/307/2 55/308/2
f 99/307/2 109/309/2 45/310/2
f 109/309/2 15/311/2 45/310/2
f 15/311/2 25/312/2 35/313/2
f 45/310/2 15/311/2 35/313/2
f 45/310/2 55/308/2 99/307/2
f 55/308/2 65/306/2 89/305/2
f 65/306/2 75/304/2 79/303/2
f 75/304/2 85/314/2 69/301/2
f 85/314/2 95/302/2 69/301/2
f 105/300/2 135/298/2 49/297/2
f 133/295/2 131/293/2 20/292/2
f 131/293/2 129/291/2 12/290/2
f 129/291/2 127/289/2 115/288/2
f 127/289/2 125/315/2 117/172/2
f 125/315/2 123/173/2 117/172/2
f 123/173/2 121/316/2 119/174/2
