# Blender v3.0.0 OBJ File: ''
# www.blender.org
o Cylinder_Cylinder.004
v 0.723711 -0.000000 -0.000000
v 0.701906 0.400814 0.000000
v 0.668622 -0.000000 0.276952
v 0.648477 0.400814 0.268608
v 0.511741 -0.000000 0.511741
v 0.496322 0.400814 0.496322
v 0.276952 -0.000000 0.668622
v 0.268608 0.400814 0.648477
v -0.000000 -0.000000 0.723711
v -0.000000 0.400814 0.701906
v -0.276952 -0.000000 0.668622
v -0.268608 0.400814 0.648477
v -0.511741 -0.000000 0.511741
v -0.496322 0.400814 0.496322
v -0.668622 -0.000000 0.276952
v -0.648477 0.400814 0.268608
v -0.723711 -0.000000 -0.000000
v -0.701906 0.400814 -0.000000
v -0.668622 -0.000000 -0.276952
v -0.648477 0.400814 -0.268608
v -0.511741 0.000000 -0.511741
v -0.496322 0.400814 -0.496322
v -0.276952 0.000000 -0.668622
v -0.268608 0.400814 -0.648476
v 0.000000 0.000000 -0.723711
v 0.000000 0.400814 -0.701906
v 0.276952 0.000000 -0.668622
v 0.268608 0.400814 -0.648476
v 0.511741 0.000000 -0.511741
v 0.496322 0.400814 -0.496322
v 0.668622 -0.000000 -0.276952
v 0.648477 0.400814 -0.268608
v 0.428365 0.703262 0.177435
v 0.463658 0.703262 0.000000
v 0.327856 0.703262 0.327856
v 0.177434 0.703262 0.428365
v -0.000000 0.703262 0.463658
v -0.177434 0.703262 0.428365
v -0.327856 0.703262 0.327856
v -0.428365 0.703262 0.177435
v -0.463658 0.703262 0.000000
v -0.428365 0.703262 -0.177434
v -0.327856 0.703262 -0.327856
v -0.177434 0.703262 -0.428364
v 0.000000 0.703262 -0.463658
v 0.177434 0.703262 -0.428364
v 0.327856 0.703262 -0.327856
v 0.428365 0.703262 -0.177434
v 0.241622 1.810820 0.100084
v 0.261530 1.810820 0.000000
v 0.184930 1.810820 0.184930
v 0.100083 1.810820 0.241622
v -0.000000 1.810820 0.261530
v -0.100083 1.810820 0.241622
v -0.184930 1.810820 0.184930
v -0.241622 1.810820 0.100083
v -0.261530 1.810820 0.000000
v -0.241622 1.810820 -0.100083
v -0.184930 1.810820 -0.184929
v -0.100083 1.810820 -0.241622
v 0.000000 1.810820 -0.261530
v 0.100083 1.810820 -0.241622
v 0.184930 1.810820 -0.184929
v 0.241622 1.810820 -0.100083
v 0.423019 2.061226 0.175220
v 0.457872 2.061226 0.000000
v 0.323765 2.061226 0.323765
v 0.175220 2.061226 0.423019
v -0.000000 2.061226 0.457873
v -0.175220 2.061226 0.423019
v -0.323765 2.061226 0.323765
v -0.423019 2.061226 0.175220
v -0.457872 2.061226 0.000000
v -0.423019 2.061226 -0.175220
v -0.323765 2.061226 -0.323764
v -0.175220 2.061226 -0.423019
v 0.000000 2.061226 -0.457872
v 0.175220 2.061226 -0.423018
v 0.323765 2.061226 -0.323764
v 0.423019 2.061226 -0.175220
v 0.293185 2.330258 0.121442
v 0.317341 2.330258 0.000000
v 0.224394 2.330258 0.224394
v 0.121441 2.330258 0.293185
v -0.000000 2.330258 0.317341
v -0.121441 2.330258 0.293185
v -0.224394 2.330258 0.224394
v -0.293185 2.330258 0.121442
v -0.317341 2.330258 0.000000
v -0.293185 2.330258 -0.121441
v -0.224394 2.330258 -0.224394
v -0.121441 2.330258 -0.293185
v 0.000000 2.330258 -0.317341
v 0.121441 2.330258 -0.293184
v 0.224394 2.330258 -0.224394
v 0.293185 2.330258 -0.121441
v 0.353912 2.700079 0.146596
v 0.383071 2.700079 0.000000
v 0.270872 2.700079 0.270873
v 0.146595 2.700079 0.353912
v -0.000000 2.700079 0.383072
v -0.146595 2.700079 0.353912
v -0.270872 2.700079 0.270873
v -0.353912 2.700079 0.146595
v -0.383071 2.700079 0.000000
v -0.353912 2.700079 -0.146595
v -0.270872 2.700079 -0.270872
v -0.146595 2.700079 -0.353912
v 0.000000 2.700079 -0.383071
v 0.146595 2.700079 -0.353911
v 0.270872 2.700079 -0.270872
v 0.353912 2.700079 -0.146595
v 0.266781 2.834066 0.110505
v 0.288761 2.834066 0.000000
v 0.204185 2.834066 0.204186
v 0.110504 2.834066 0.266781
v -0.000000 2.834066 0.288762
v -0.110504 2.834066 0.266781
v -0.204185 2.834066 0.204186
v -0.266781 2.834066 0.110505
v -0.288761 2.834066 0.000000
v -0.266781 2.834066 -0.110504
v -0.204185 2.834066 -0.204185
v -0.110504 2.834066 -0.266780
v 0.000000 2.834066 -0.288761
v 0.110504 2.834066 -0.266780
v 0.204185 2.834066 -0.204185
v 0.266781 2.834066 -0.110504
v -0.058678 3.143041 -0.114953
v -0.058678 2.930270 -0.114953
v 0.123732 2.834066 0.000000
v 0.123732 2.930270 0.000000
v 0.114314 2.834066 0.047351
v 0.114314 2.930270 0.047351
v 0.087492 2.834066 0.087492
v 0.087492 2.930270 0.087492
v 0.047350 2.834066 0.114314
v 0.047350 2.930270 0.114314
v -0.000000 2.834066 0.123733
v -0.000000 2.930270 0.123733
v -0.047350 2.834066 0.114314
v -0.047350 2.930270 0.114314
v -0.087492 2.834066 0.087492
v -0.087492 2.930270 0.087492
v -0.114314 2.834066 0.047351
v -0.114314 2.930270 0.047351
v -0.123732 2.834066 0.000000
v -0.123732 2.930270 0.000000
v -0.114314 2.834066 -0.047350
v -0.114314 2.930270 -0.047350
v -0.087492 2.834066 -0.087492
v -0.087492 2.930270 -0.087491
v -0.047350 2.834066 -0.114313
v -0.047350 2.930270 -0.114313
v 0.000000 2.834066 -0.123732
v 0.000000 2.930270 -0.123732
v 0.047350 2.834066 -0.114313
v 0.047350 2.930270 -0.114313
v 0.087492 2.834066 -0.087492
v 0.087492 2.930270 -0.087492
v 0.114314 2.834066 -0.047350
v 0.114314 2.930270 -0.047350
v 0.058678 2.930270 -0.114953
v 0.058678 3.143041 -0.114953
v -0.058678 2.930270 0.117350
v -0.058678 3.143041 0.117350
v 0.058678 2.930270 0.117350
v 0.058678 3.143041 0.117350
vt 1.000000 1.000000
vt 0.937500 0.500000
vt 1.000000 0.500000
vt 0.937500 1.000000
vt 0.875000 0.500000
vt 0.875000 1.000000
vt 0.812500 0.500000
vt 0.812500 1.000000
vt 0.750000 0.500000
vt 0.750000 1.000000
vt 0.687500 0.500000
vt 0.625000 1.000000
vt 0.625000 0.500000
vt 0.562500 0.500000
vt 0.500000 1.000000
vt 0.500000 0.500000
vt 0.437500 1.000000
vt 0.437500 0.500000
vt 0.375000 1.000000
vt 0.375000 0.500000
vt 0.312500 0.500000
vt 0.312500 1.000000
vt 0.250000 0.500000
vt 0.250000 1.000000
vt 0.187500 0.500000
vt 0.187500 1.000000
vt 0.125000 0.500000
vt 0.750000 1.000000
vt 0.125000 1.000000
vt 0.062500 0.500000
vt 0.062500 1.000000
vt 0.000000 0.500000
vt 0.971731 0.341844
vt 0.841844 0.028269
vt 0.528269 0.158156
vt 0.937500 1.000000
vt 0.875000 1.000000
vt 0.875000 1.000000
vt 0.437500 1.000000
vt 0.125000 1.000000
vt 0.562500 1.000000
vt 0.562500 1.000000
vt 0.250000 1.000000
vt 0.687500 1.000000
vt 0.687500 1.000000
vt 0.375000 1.000000
vt 0.062500 1.000000
vt 0.812500 1.000000
vt 0.500000 1.000000
vt 0.187500 1.000000
vt 0.625000 1.000000
vt 0.312500 1.000000
vt 0.000000 1.000000
vt 0.000000 1.000000
vt 0.500000 1.000000
vt 0.437500 1.000000
vt 0.437500 1.000000
vt 0.375000 1.000000
vt 0.812500 1.000000
vt 0.312500 1.000000
vt 0.750000 1.000000
vt 0.250000 1.000000
vt 0.687500 1.000000
vt 0.187500 1.000000
vt 0.625000 1.000000
vt 0.125000 1.000000
vt 0.562500 1.000000
vt 0.062500 1.000000
vt 1.000000 1.000000
vt 0.937500 1.000000
vt 0.000000 1.000000
vt 0.125000 1.000000
vt 0.187500 1.000000
vt 0.125000 1.000000
vt 0.875000 1.000000
vt 0.375000 1.000000
vt 0.812500 1.000000
vt 0.312500 1.000000
vt 0.750000 1.000000
vt 0.250000 1.000000
vt 0.687500 1.000000
vt 0.187500 1.000000
vt 0.625000 1.000000
vt 0.562500 1.000000
vt 0.062500 1.000000
vt 0.500000 1.000000
vt 1.000000 1.000000
vt 0.937500 1.000000
vt 0.000000 1.000000
vt 0.312500 1.000000
vt 0.250000 1.000000
vt 0.250000 1.000000
vt 0.562500 1.000000
vt 0.062500 1.000000
vt 0.500000 1.000000
vt 1.000000 1.000000
vt 0.937500 1.000000
vt 0.000000 1.000000
vt 0.437500 1.000000
vt 0.875000 1.000000
vt 0.375000 1.000000
vt 0.812500 1.000000
vt 0.750000 1.000000
vt 0.687500 1.000000
vt 0.625000 1.000000
vt 0.875000 1.000000
vt 0.937500 1.000000
vt 0.875000 1.000000
vt 0.687500 1.000000
vt 0.187500 1.000000
vt 0.625000 1.000000
vt 0.125000 1.000000
vt 0.562500 1.000000
vt 0.062500 1.000000
vt 0.500000 1.000000
vt 1.000000 1.000000
vt 0.937500 1.000000
vt 0.000000 1.000000
vt 0.437500 1.000000
vt 0.375000 1.000000
vt 0.812500 1.000000
vt 0.312500 1.000000
vt 0.750000 1.000000
vt 0.080294 0.080294
vt 0.419706 0.080294
vt 0.419706 0.419706
vt 0.375000 1.000000
vt 0.812500 1.000000
vt 0.312500 1.000000
vt 0.750000 1.000000
vt 0.250000 1.000000
vt 0.687500 1.000000
vt 0.187500 1.000000
vt 0.625000 1.000000
vt 0.125000 1.000000
vt 0.562500 1.000000
vt 0.062500 1.000000
vt 0.500000 1.000000
vt 1.000000 1.000000
vt 0.000000 1.000000
vt 0.437500 1.000000
vt 1.000000 1.000000
vt 0.937500 0.500000
vt 1.000000 0.500000
vt 0.937500 1.000000
vt 0.875000 0.500000
vt 0.875000 1.000000
vt 0.812500 0.500000
vt 0.812500 1.000000
vt 0.750000 0.500000
vt 0.750000 1.000000
vt 0.687500 0.500000
vt 0.625000 1.000000
vt 0.625000 0.500000
vt 0.562500 0.500000
vt 0.500000 1.000000
vt 0.500000 0.500000
vt 0.437500 0.500000
vt 0.625000 0.000000
vt 0.375000 0.250000
vt 0.375000 0.000000
vt 0.437500 1.000000
vt 0.375000 0.500000
vt 0.625000 0.250000
vt 0.375000 0.500000
vt 0.375000 0.250000
vt 0.312500 1.000000
vt 0.312500 0.500000
vt 0.625000 0.500000
vt 0.375000 0.750000
vt 0.375000 0.500000
vt 0.250000 0.500000
vt 0.625000 0.750000
vt 0.375000 1.000000
vt 0.375000 0.750000
vt 0.250000 1.000000
vt 0.187500 0.500000
vt 0.375000 0.500000
vt 0.125000 0.750000
vt 0.125000 0.500000
vt 0.187500 1.000000
vt 0.125000 0.500000
vt 0.080294 0.080294
vt 0.419706 0.080294
vt 0.419706 0.419706
vt 0.875000 0.500000
vt 0.625000 0.750000
vt 0.625000 0.500000
vt 0.125000 1.000000
vt 0.062500 0.500000
vt 0.062500 1.000000
vt 0.000000 0.500000
vt 0.841844 0.028269
vt 0.528269 0.158156
vt 0.658156 0.471731
vt 0.658156 0.471731
vt 0.750000 0.490000
vt 0.841844 0.471731
vt 0.919706 0.419706
vt 0.990000 0.250000
vt 0.971731 0.158156
vt 0.919706 0.080294
vt 0.750000 0.010000
vt 0.658156 0.028269
vt 0.580294 0.080294
vt 0.510000 0.250000
vt 0.528269 0.341844
vt 0.580294 0.419706
vt 0.341844 0.471731
vt 0.250000 0.490000
vt 0.158156 0.471731
vt 0.080294 0.419706
vt 0.028269 0.341844
vt 0.010000 0.250000
vt 0.028269 0.158156
vt 0.158156 0.028269
vt 0.250000 0.010000
vt 0.341844 0.028269
vt 0.471731 0.158156
vt 0.490000 0.250000
vt 0.471731 0.341844
vt 1.000000 1.000000
vt 0.687500 1.000000
vt 0.562500 1.000000
vt 0.625000 0.250000
vt 0.375000 1.000000
vt 0.625000 0.500000
vt 0.625000 0.750000
vt 0.625000 1.000000
vt 0.375000 0.750000
vt 0.341844 0.471731
vt 0.080294 0.419706
vt 0.250000 0.490000
vt 0.158156 0.471731
vt 0.028269 0.341844
vt 0.010000 0.250000
vt 0.028269 0.158156
vt 0.158156 0.028269
vt 0.250000 0.010000
vt 0.341844 0.028269
vt 0.471731 0.158156
vt 0.490000 0.250000
vt 0.471731 0.341844
vt 0.875000 0.750000
vt 0.000000 1.000000
vt 0.750000 0.490000
vt 0.841844 0.471731
vt 0.919706 0.419706
vt 0.971731 0.341844
vt 0.990000 0.250000
vt 0.971731 0.158156
vt 0.919706 0.080294
vt 0.750000 0.010000
vt 0.658156 0.028269
vt 0.580294 0.080294
vt 0.510000 0.250000
vt 0.528269 0.341844
vt 0.580294 0.419706
vn 0.9794 0.0533 0.1948
vn 0.8303 0.0533 0.5548
vn 0.5548 0.0533 0.8303
vn 0.1948 0.0533 0.9794
vn -0.1948 0.0533 0.9794
vn -0.5548 0.0533 0.8303
vn -0.8303 0.0533 0.5548
vn -0.9794 0.0533 0.1948
vn -0.9794 0.0533 -0.1948
vn -0.8303 0.0533 -0.5548
vn -0.5548 0.0533 -0.8303
vn -0.1948 0.0533 -0.9794
vn 0.1948 0.0533 -0.9794
vn 0.5548 0.0533 -0.8303
vn 0.1544 0.6114 0.7761
vn 0.8303 0.0533 -0.5548
vn 0.9794 0.0533 -0.1948
vn 0.0000 -1.0000 -0.0000
vn 0.8185 0.1762 0.5469
vn -0.7761 0.6114 -0.1544
vn 0.4396 0.6114 -0.6580
vn 0.6580 0.6114 0.4396
vn -0.6580 0.6114 0.4396
vn -0.1544 0.6114 -0.7761
vn -0.1544 0.6114 0.7761
vn -0.6580 0.6114 -0.4396
vn 0.6580 0.6114 -0.4396
vn 0.4396 0.6114 0.6580
vn -0.7761 0.6114 0.1544
vn 0.7761 0.6114 0.1544
vn 0.1544 0.6114 -0.7761
vn -0.4396 0.6114 0.6580
vn -0.4396 0.6114 -0.6580
vn 0.7761 0.6114 -0.1544
vn -0.7775 -0.6096 -0.1546
vn -0.8185 0.1762 -0.5469
vn 0.5469 0.1762 0.8185
vn -0.5469 0.1762 -0.8185
vn 0.1920 0.1762 0.9654
vn -0.1920 0.1762 -0.9654
vn -0.1920 0.1762 0.9654
vn 0.1920 0.1762 -0.9654
vn -0.5469 0.1762 0.8185
vn 0.5469 0.1762 -0.8185
vn -0.8185 0.1762 0.5469
vn 0.8185 0.1762 -0.5469
vn -0.9654 0.1762 0.1920
vn 0.9654 0.1762 0.1920
vn 0.9654 0.1762 -0.1920
vn -0.9654 0.1762 -0.1920
vn 0.4945 0.4560 -0.7400
vn 0.6591 -0.6096 0.4404
vn -0.6591 -0.6096 -0.4404
vn 0.4404 -0.6096 0.6591
vn -0.4404 -0.6096 -0.6591
vn 0.1546 -0.6096 0.7775
vn -0.1546 -0.6096 -0.7775
vn -0.1546 -0.6096 0.7775
vn 0.1546 -0.6096 -0.7775
vn -0.4404 -0.6096 0.6591
vn 0.4404 -0.6096 -0.6591
vn -0.6591 -0.6096 0.4404
vn 0.6591 -0.6096 -0.4404
vn -0.7775 -0.6096 0.1546
vn 0.7775 -0.6096 0.1546
vn 0.7775 -0.6096 -0.1546
vn -0.1922 -0.1717 -0.9662
vn -0.7400 0.4560 0.4945
vn 0.7400 0.4560 -0.4945
vn -0.8729 0.4560 0.1736
vn 0.8729 0.4560 0.1736
vn 0.8729 0.4560 -0.1736
vn -0.8729 0.4560 -0.1736
vn 0.7400 0.4560 0.4945
vn -0.7400 0.4560 -0.4945
vn 0.4945 0.4560 0.7400
vn -0.4945 0.4560 -0.7400
vn 0.1736 0.4560 0.8729
vn -0.1736 0.4560 -0.8729
vn -0.1736 0.4560 0.8729
vn 0.1736 0.4560 -0.8729
vn -0.4945 0.4560 0.7400
vn 0.6843 0.5681 0.4572
vn -0.1922 -0.1717 0.9662
vn 0.1922 -0.1717 -0.9662
vn -0.5473 -0.1717 0.8191
vn 0.5473 -0.1717 -0.8191
vn -0.8191 -0.1717 0.5473
vn 0.8191 -0.1717 -0.5473
vn -0.9662 -0.1717 0.1922
vn 0.9662 -0.1717 0.1922
vn 0.9662 -0.1717 -0.1922
vn -0.9662 -0.1717 -0.1922
vn 0.8191 -0.1717 0.5473
vn -0.8191 -0.1717 -0.5473
vn 0.5473 -0.1717 0.8191
vn -0.5473 -0.1717 -0.8191
vn 0.1922 -0.1717 0.9662
vn 0.0000 1.0000 0.0000
vn -0.6843 0.5681 -0.4572
vn 0.4572 0.5681 0.6843
vn -0.4572 0.5681 -0.6843
vn 0.1605 0.5681 0.8071
vn -0.1605 0.5681 -0.8071
vn -0.1605 0.5681 0.8071
vn 0.1605 0.5681 -0.8071
vn -0.4572 0.5681 0.6843
vn 0.4572 0.5681 -0.6843
vn -0.6843 0.5681 0.4572
vn 0.6843 0.5681 -0.4572
vn -0.8071 0.5681 0.1605
vn 0.8071 0.5681 0.1605
vn 0.8071 0.5681 -0.1605
vn -0.8071 0.5681 -0.1605
vn 0.9808 -0.0000 0.1951
vn 0.8315 0.0000 0.5556
vn 0.5556 -0.0000 0.8315
vn 0.1951 -0.0000 0.9808
vn -0.1951 -0.0000 0.9808
vn -0.5556 -0.0000 0.8315
vn -0.8315 -0.0000 0.5556
vn -0.9808 -0.0000 0.1951
vn -0.9808 0.0000 -0.1951
vn -0.8315 0.0000 -0.5556
vn -0.5556 0.0000 -0.8315
vn -1.0000 0.0000 -0.0000
vn -0.1951 0.0000 -0.9808
vn 0.0000 -0.0000 1.0000
vn 0.1951 0.0000 -0.9808
vn 1.0000 0.0000 0.0000
vn 0.5556 0.0000 -0.8315
vn 0.0000 0.0000 -1.0000
vn 0.8315 0.0000 -0.5556
vn 0.9808 0.0000 -0.1951
vn 0.8071 0.5681 0.1606
vn -0.8071 0.5681 -0.1606
vn 0.0000 1.0000 -0.0001
s off
f 2/1/1 3/2/1 1/3/1
f 4/4/2 5/5/2 3/2/2
f 6/6/3 7/7/3 5/5/3
f 8/8/4 9/9/4 7/7/4
f 10/10/5 11/11/5 9/9/5
f 11/11/6 14/12/6 13/13/6
f 14/12/7 15/14/7 13/13/7
f 15/14/8 18/15/8 17/16/8
f 17/16/9 20/17/9 19/18/9
f 19/18/10 22/19/10 21/20/10
f 22/19/11 23/21/11 21/20/11
f 24/22/12 25/23/12 23/21/12
f 26/24/13 27/25/13 25/23/13
f 28/26/14 29/27/14 27/25/14
f 8/8/15 37/28/15 10/10/15
f 30/29/16 31/30/16 29/27/16
f 32/31/17 1/32/17 31/30/17
f 7/33/18 15/34/18 23/35/18
f 33/36/19 51/37/19 35/38/19
f 18/15/20 42/39/20 20/17/20
f 28/26/21 47/40/21 30/29/21
f 6/6/22 33/36/22 35/38/22
f 14/12/23 40/41/23 16/42/23
f 24/22/24 45/43/24 26/24/24
f 10/10/25 38/44/25 12/45/25
f 20/17/26 43/46/26 22/19/26
f 30/29/27 48/47/27 32/31/27
f 6/6/28 36/48/28 8/8/28
f 18/15/29 40/41/29 41/49/29
f 2/1/30 33/36/30 4/4/30
f 28/26/31 45/43/31 46/50/31
f 12/45/32 39/51/32 14/12/32
f 22/19/33 44/52/33 24/22/33
f 32/31/34 34/53/34 2/54/34
f 57/55/35 74/56/35 58/57/35
f 42/39/36 59/58/36 43/46/36
f 35/38/37 52/59/37 36/48/37
f 43/46/38 60/60/38 44/52/38
f 36/48/39 53/61/39 37/28/39
f 44/52/40 61/62/40 45/43/40
f 37/28/41 54/63/41 38/44/41
f 46/50/42 61/62/42 62/64/42
f 38/44/43 55/65/43 39/51/43
f 46/50/44 63/66/44 47/40/44
f 40/41/45 55/65/45 56/67/45
f 47/40/46 64/68/46 48/47/46
f 40/41/47 57/55/47 41/49/47
f 34/69/48 49/70/48 33/36/48
f 48/47/49 50/71/49 34/53/49
f 41/49/50 58/57/50 42/39/50
f 79/72/51 94/73/51 95/74/51
f 49/70/52 67/75/52 51/37/52
f 59/58/53 74/56/53 75/76/53
f 52/59/54 67/75/54 68/77/54
f 60/60/55 75/76/55 76/78/55
f 52/59/56 69/79/56 53/61/56
f 60/60/57 77/80/57 61/62/57
f 54/63/58 69/79/58 70/81/58
f 62/64/59 77/80/59 78/82/59
f 54/63/60 71/83/60 55/65/60
f 63/66/61 78/82/61 79/72/61
f 56/67/62 71/83/62 72/84/62
f 63/66/63 80/85/63 64/68/63
f 57/55/64 72/84/64 73/86/64
f 50/87/65 65/88/65 49/70/65
f 64/68/66 66/89/66 50/71/66
f 92/90/67 109/91/67 93/92/67
f 71/83/68 88/93/68 72/84/68
f 80/85/69 95/74/69 96/94/69
f 72/84/70 89/95/70 73/86/70
f 66/96/71 81/97/71 65/88/71
f 80/85/72 82/98/72 66/89/72
f 73/86/73 90/99/73 74/56/73
f 65/88/74 83/100/74 67/75/74
f 75/76/75 90/99/75 91/101/75
f 67/75/76 84/102/76 68/77/76
f 75/76/77 92/90/77 76/78/77
f 68/77/78 85/103/78 69/79/78
f 77/80/79 92/90/79 93/92/79
f 69/79/80 86/104/80 70/81/80
f 77/80/81 94/73/81 78/82/81
f 71/83/82 86/104/82 87/105/82
f 99/106/83 113/107/83 115/108/83
f 85/103/84 102/109/84 86/104/84
f 93/92/85 110/110/85 94/73/85
f 86/104/86 103/111/86 87/105/86
f 94/73/87 111/112/87 95/74/87
f 88/93/88 103/111/88 104/113/88
f 96/94/89 111/112/89 112/114/89
f 88/93/90 105/115/90 89/95/90
f 82/116/91 97/117/91 81/97/91
f 96/94/92 98/118/92 82/98/92
f 90/99/93 105/115/93 106/119/93
f 81/97/94 99/106/94 83/100/94
f 90/99/95 107/120/95 91/101/95
f 83/100/96 100/121/96 84/102/96
f 91/101/97 108/122/97 92/90/97
f 84/102/98 101/123/98 85/103/98
f 123/124/99 119/125/99 115/126/99
f 106/119/100 123/127/100 107/120/100
f 100/121/101 115/108/101 116/128/101
f 107/120/102 124/129/102 108/122/102
f 100/121/103 117/130/103 101/123/103
f 109/91/104 124/129/104 125/131/104
f 101/123/105 118/132/105 102/109/105
f 109/91/106 126/133/106 110/110/106
f 102/109/107 119/134/107 103/111/107
f 111/112/108 126/133/108 127/135/108
f 103/111/109 120/136/109 104/113/109
f 112/114/110 127/135/110 128/137/110
f 104/113/111 121/138/111 105/115/111
f 98/139/112 113/107/112 97/117/112
f 112/114/113 114/140/113 98/118/113
f 105/115/114 122/141/114 106/119/114
f 132/142/115 133/143/115 131/144/115
f 134/145/116 135/146/116 133/143/116
f 136/147/117 137/148/117 135/146/117
f 138/149/118 139/150/118 137/148/118
f 140/151/119 141/152/119 139/150/119
f 141/152/120 144/153/120 143/154/120
f 144/153/121 145/155/121 143/154/121
f 145/155/122 148/156/122 147/157/122
f 148/156/123 149/158/123 147/157/123
f 164/159/99 166/160/99 168/161/99
f 150/162/124 151/163/124 149/158/124
f 167/164/18 130/165/18 163/166/18
f 151/163/125 154/167/125 153/168/125
f 166/169/126 130/170/126 165/171/126
f 154/167/127 155/172/127 153/168/127
f 168/173/128 165/174/128 167/175/128
f 156/176/129 157/177/129 155/172/129
f 164/178/130 167/179/130 163/180/130
f 158/181/131 159/182/131 157/177/131
f 152/183/99 144/184/99 136/185/99
f 129/186/132 163/187/132 130/188/132
f 160/189/133 161/190/133 159/182/133
f 162/191/134 131/192/134 161/190/134
f 145/193/18 153/194/18 161/195/18
f 2/1/1 4/4/1 3/2/1
f 4/4/2 6/6/2 5/5/2
f 6/6/3 8/8/3 7/7/3
f 8/8/4 10/10/4 9/9/4
f 10/10/5 12/45/5 11/11/5
f 11/11/6 12/45/6 14/12/6
f 14/12/7 16/42/7 15/14/7
f 15/14/8 16/42/8 18/15/8
f 17/16/9 18/15/9 20/17/9
f 19/18/10 20/17/10 22/19/10
f 22/19/11 24/22/11 23/21/11
f 24/22/12 26/24/12 25/23/12
f 26/24/13 28/26/13 27/25/13
f 28/26/14 30/29/14 29/27/14
f 8/8/15 36/48/15 37/28/15
f 30/29/16 32/31/16 31/30/16
f 32/31/17 2/54/17 1/32/17
f 31/196/18 1/197/18 3/198/18
f 3/198/18 5/199/18 31/196/18
f 5/199/18 7/33/18 31/196/18
f 7/33/18 9/200/18 11/201/18
f 11/201/18 13/202/18 7/33/18
f 13/202/18 15/34/18 7/33/18
f 15/34/18 17/203/18 19/204/18
f 19/204/18 21/205/18 23/35/18
f 23/35/18 25/206/18 27/207/18
f 27/207/18 29/208/18 31/196/18
f 15/34/18 19/204/18 23/35/18
f 23/35/18 27/207/18 31/196/18
f 31/196/18 7/33/18 23/35/18
f 33/36/19 49/70/19 51/37/19
f 18/15/20 41/49/20 42/39/20
f 28/26/21 46/50/21 47/40/21
f 6/6/22 4/4/22 33/36/22
f 14/12/23 39/51/23 40/41/23
f 24/22/24 44/52/24 45/43/24
f 10/10/25 37/28/25 38/44/25
f 20/17/26 42/39/26 43/46/26
f 30/29/27 47/40/27 48/47/27
f 6/6/28 35/38/28 36/48/28
f 18/15/29 16/42/29 40/41/29
f 2/1/30 34/69/30 33/36/30
f 28/26/31 26/24/31 45/43/31
f 12/45/32 38/44/32 39/51/32
f 22/19/33 43/46/33 44/52/33
f 32/31/34 48/47/34 34/53/34
f 57/55/35 73/86/35 74/56/35
f 42/39/36 58/57/36 59/58/36
f 35/38/37 51/37/37 52/59/37
f 43/46/38 59/58/38 60/60/38
f 36/48/39 52/59/39 53/61/39
f 44/52/40 60/60/40 61/62/40
f 37/28/41 53/61/41 54/63/41
f 46/50/42 45/43/42 61/62/42
f 38/44/43 54/63/43 55/65/43
f 46/50/44 62/64/44 63/66/44
f 40/41/45 39/51/45 55/65/45
f 47/40/46 63/66/46 64/68/46
f 40/41/47 56/67/47 57/55/47
f 34/69/48 50/87/48 49/70/48
f 48/47/49 64/68/49 50/71/49
f 41/49/50 57/55/50 58/57/50
f 79/72/51 78/82/51 94/73/51
f 49/70/52 65/88/52 67/75/52
f 59/58/53 58/57/53 74/56/53
f 52/59/54 51/37/54 67/75/54
f 60/60/55 59/58/55 75/76/55
f 52/59/56 68/77/56 69/79/56
f 60/60/57 76/78/57 77/80/57
f 54/63/58 53/61/58 69/79/58
f 62/64/59 61/62/59 77/80/59
f 54/63/60 70/81/60 71/83/60
f 63/66/61 62/64/61 78/82/61
f 56/67/62 55/65/62 71/83/62
f 63/66/63 79/72/63 80/85/63
f 57/55/64 56/67/64 72/84/64
f 50/87/65 66/96/65 65/88/65
f 64/68/66 80/85/66 66/89/66
f 92/90/67 108/122/67 109/91/67
f 71/83/68 87/105/68 88/93/68
f 80/85/69 79/72/69 95/74/69
f 72/84/70 88/93/70 89/95/70
f 66/96/71 82/116/71 81/97/71
f 80/85/72 96/94/72 82/98/72
f 73/86/73 89/95/73 90/99/73
f 65/88/74 81/97/74 83/100/74
f 75/76/75 74/56/75 90/99/75
f 67/75/76 83/100/76 84/102/76
f 75/76/77 91/101/77 92/90/77
f 68/77/78 84/102/78 85/103/78
f 77/80/79 76/78/79 92/90/79
f 69/79/80 85/103/80 86/104/80
f 77/80/81 93/92/81 94/73/81
f 71/83/82 70/81/82 86/104/82
f 99/106/83 97/117/83 113/107/83
f 85/103/84 101/123/84 102/109/84
f 93/92/85 109/91/85 110/110/85
f 86/104/86 102/109/86 103/111/86
f 94/73/87 110/110/87 111/112/87
f 88/93/88 87/105/88 103/111/88
f 96/94/89 95/74/89 111/112/89
f 88/93/90 104/113/90 105/115/90
f 82/116/91 98/139/91 97/117/91
f 96/94/92 112/114/92 98/118/92
f 90/99/93 89/95/93 105/115/93
f 81/97/94 97/117/94 99/106/94
f 90/99/95 106/119/95 107/120/95
f 83/100/96 99/106/96 100/121/96
f 91/101/97 107/120/97 108/122/97
f 84/102/98 100/121/98 101/123/98
f 115/126/99 113/209/99 114/210/99
f 114/210/99 128/211/99 115/126/99
f 128/211/99 127/212/99 115/126/99
f 127/212/99 126/213/99 125/214/99
f 125/214/99 124/215/99 123/124/99
f 123/124/99 122/216/99 119/125/99
f 122/216/99 121/217/99 119/125/99
f 121/217/99 120/218/99 119/125/99
f 119/125/99 118/219/99 117/220/99
f 117/220/99 116/221/99 115/126/99
f 127/212/99 125/214/99 115/126/99
f 125/214/99 123/124/99 115/126/99
f 119/125/99 117/220/99 115/126/99
f 106/119/100 122/141/100 123/127/100
f 100/121/101 99/106/101 115/108/101
f 107/120/102 123/127/102 124/129/102
f 100/121/103 116/128/103 117/130/103
f 109/91/104 108/122/104 124/129/104
f 101/123/105 117/130/105 118/132/105
f 109/91/106 125/131/106 126/133/106
f 102/109/107 118/132/107 119/134/107
f 111/112/108 110/110/108 126/133/108
f 103/111/109 119/134/109 120/136/109
f 112/114/110 111/112/110 127/135/110
f 104/113/111 120/136/111 121/138/111
f 98/139/135 114/222/135 113/107/135
f 112/114/113 128/137/113 114/140/113
f 105/115/136 121/138/136 122/141/136
f 132/142/115 134/145/115 133/143/115
f 134/145/116 136/147/116 135/146/116
f 136/147/117 138/149/117 137/148/117
f 138/149/118 140/151/118 139/150/118
f 140/151/119 142/223/119 141/152/119
f 141/152/120 142/223/120 144/153/120
f 144/153/121 146/224/121 145/155/121
f 145/155/122 146/224/122 148/156/122
f 148/156/123 150/162/123 149/158/123
f 164/159/99 129/225/99 166/160/99
f 150/162/124 152/226/124 151/163/124
f 167/164/18 165/227/18 130/165/18
f 151/163/125 152/226/125 154/167/125
f 166/169/126 129/228/126 130/170/126
f 154/167/127 156/176/127 155/172/127
f 168/173/128 166/229/128 165/174/128
f 156/176/129 158/181/129 157/177/129
f 164/178/130 168/230/130 167/179/130
f 158/181/131 160/189/131 159/182/131
f 136/185/99 134/231/99 160/232/99
f 134/231/99 132/233/99 160/232/99
f 132/233/99 162/234/99 160/232/99
f 160/232/99 158/235/99 152/183/99
f 158/235/99 156/236/99 152/183/99
f 156/236/137 154/237/137 152/183/137
f 152/183/99 150/238/99 148/239/99
f 148/239/99 146/240/99 152/183/99
f 146/240/99 144/184/99 152/183/99
f 144/184/99 142/241/99 140/242/99
f 140/242/99 138/243/99 144/184/99
f 138/243/99 136/185/99 144/184/99
f 136/185/99 160/232/99 152/183/99
f 129/186/132 164/244/132 163/187/132
f 160/189/133 162/191/133 161/190/133
f 162/191/134 132/245/134 131/192/134
f 161/195/18 131/246/18 133/247/18
f 133/247/18 135/248/18 161/195/18
f 135/248/18 137/249/18 161/195/18
f 137/249/18 139/250/18 141/251/18
f 141/251/18 143/252/18 145/193/18
f 145/193/18 147/253/18 149/254/18
f 149/254/18 151/255/18 153/194/18
f 153/194/18 155/256/18 157/257/18
f 157/257/18 159/258/18 161/195/18
f 137/249/18 141/251/18 161/195/18
f 141/251/18 145/193/18 161/195/18
f 145/193/18 149/254/18 153/194/18
f 153/194/18 157/257/18 161/195/18
