# Blender v3.0.0 OBJ File: ''
# www.blender.org
o Cylinder_Cylinder.001
v 0.000000 0.000000 -0.635756
v 0.000000 0.445658 -0.625818
v 0.124030 0.000000 -0.623541
v 0.122091 0.445658 -0.613793
v 0.243293 0.000000 -0.587362
v 0.239490 0.445658 -0.578180
v 0.353207 0.000000 -0.528612
v 0.347686 0.445658 -0.520348
v 0.449548 0.000000 -0.449548
v 0.442520 0.445658 -0.442520
v 0.528612 0.000000 -0.353207
v 0.520348 0.445658 -0.347686
v 0.587362 0.000000 -0.243293
v 0.578180 0.445658 -0.239490
v 0.623541 0.000000 -0.124030
v 0.613793 0.445658 -0.122091
v 0.635756 0.000000 0.000000
v 0.625818 0.445658 0.000000
v 0.623541 0.000000 0.124030
v 0.613793 0.445658 0.122091
v 0.587362 0.000000 0.243293
v 0.578180 0.445658 0.239490
v 0.528612 0.000000 0.353207
v 0.520348 0.445658 0.347686
v 0.449548 0.000000 0.449548
v 0.442520 0.445658 0.442520
v 0.353207 0.000000 0.528612
v 0.347686 0.445658 0.520348
v 0.243293 0.000000 0.587362
v 0.239490 0.445658 0.578180
v 0.124030 0.000000 0.623541
v 0.122091 0.445658 0.613793
v -0.000000 0.000000 0.635756
v -0.000000 0.445658 0.625818
v -0.124030 0.000000 0.623541
v -0.122091 0.445658 0.613793
v -0.243293 0.000000 0.587362
v -0.239490 0.445658 0.578180
v -0.353207 0.000000 0.528612
v -0.347686 0.445658 0.520348
v -0.449548 0.000000 0.449548
v -0.442520 0.445658 0.442520
v -0.528612 0.000000 0.353207
v -0.520348 0.445658 0.347686
v -0.587362 0.000000 0.243294
v -0.578180 0.445658 0.239490
v -0.623541 0.000000 0.124030
v -0.613793 0.445658 0.122091
v -0.635756 0.000000 -0.000000
v -0.625818 0.445658 -0.000000
v -0.623541 0.000000 -0.124030
v -0.613793 0.445658 -0.122091
v -0.587362 0.000000 -0.243294
v -0.578180 0.445658 -0.239490
v -0.528612 0.000000 -0.353207
v -0.520349 0.445658 -0.347686
v -0.449548 0.000000 -0.449548
v -0.442520 0.445658 -0.442520
v -0.353207 0.000000 -0.528612
v -0.347686 0.445658 -0.520348
v -0.243293 0.000000 -0.587362
v -0.239490 0.445658 -0.578180
v -0.124030 0.000000 -0.623541
v -0.122091 0.445658 -0.613793
v 0.000000 0.445658 -0.473441
v 0.000000 2.034065 -0.473441
v 0.092364 0.445658 -0.464344
v 0.092364 2.034065 -0.464344
v 0.181178 0.445658 -0.437402
v 0.181178 2.034065 -0.437402
v 0.263030 0.445658 -0.393652
v 0.263030 2.034065 -0.393652
v 0.334773 0.445658 -0.334773
v 0.334773 2.034065 -0.334773
v 0.393652 0.445658 -0.263030
v 0.393652 2.034065 -0.263030
v 0.437402 0.445658 -0.181178
v 0.437402 2.034065 -0.181178
v 0.464344 0.445658 -0.092364
v 0.464344 2.034065 -0.092364
v 0.473441 0.445658 0.000000
v 0.473441 2.034065 0.000000
v 0.464344 0.445658 0.092364
v 0.464344 2.034065 0.092364
v 0.437402 0.445658 0.181178
v 0.437402 2.034065 0.181178
v 0.393652 0.445658 0.263030
v 0.393652 2.034065 0.263030
v 0.334773 0.445658 0.334773
v 0.334773 2.034065 0.334773
v 0.263030 0.445658 0.393652
v 0.263030 2.034065 0.393652
v 0.181178 0.445658 0.437402
v 0.181178 2.034065 0.437402
v 0.092364 0.445658 0.464344
v 0.092364 2.034065 0.464344
v -0.000000 0.445658 0.473441
v -0.000000 2.034065 0.473441
v -0.092364 0.445658 0.464344
v -0.092364 2.034065 0.464344
v -0.181178 0.445658 0.437402
v -0.181178 2.034065 0.437402
v -0.263030 0.445658 0.393652
v -0.263030 2.034065 0.393652
v -0.334773 0.445658 0.334773
v -0.334773 2.034065 0.334773
v -0.393651 0.445658 0.263030
v -0.393651 2.034065 0.263030
v -0.437402 0.445658 0.181178
v -0.437402 2.034065 0.181178
v -0.464344 0.445658 0.092364
v -0.464344 2.034065 0.092364
v -0.473441 0.445658 0.000000
v -0.473441 2.034065 0.000000
v -0.464344 0.445658 -0.092364
v -0.464344 2.034065 -0.092364
v -0.437402 0.445658 -0.181178
v -0.437402 2.034065 -0.181178
v -0.393652 0.445658 -0.263029
v -0.393652 2.034065 -0.263029
v -0.334773 0.445658 -0.334773
v -0.334773 2.034065 -0.334773
v -0.263030 0.445658 -0.393652
v -0.263030 2.034065 -0.393652
v -0.181178 0.445658 -0.437402
v -0.181178 2.034065 -0.437402
v -0.092364 0.445658 -0.464344
v -0.092364 2.034065 -0.464344
vt 1.000000 1.000000
vt 0.968750 0.500000
vt 1.000000 0.500000
vt 0.968750 1.000000
vt 0.937500 0.500000
vt 0.906250 1.000000
vt 0.906250 0.500000
vt 0.875000 0.500000
vt 0.875000 1.000000
vt 0.843750 0.500000
vt 0.843750 1.000000
vt 0.812500 0.500000
vt 0.812500 1.000000
vt 0.781250 0.500000
vt 0.781250 1.000000
vt 0.750000 0.500000
vt 0.750000 1.000000
vt 0.718750 0.500000
vt 0.718750 1.000000
vt 0.687500 0.500000
vt 0.687500 1.000000
vt 0.656250 0.500000
vt 0.656250 1.000000
vt 0.625000 0.500000
vt 0.625000 1.000000
vt 0.593750 0.500000
vt 0.593750 1.000000
vt 0.562500 0.500000
vt 0.562500 1.000000
vt 0.531250 0.500000
vt 0.531250 1.000000
vt 0.500000 0.500000
vt 0.500000 1.000000
vt 0.468750 0.500000
vt 0.437500 1.000000
vt 0.437500 0.500000
vt 0.406250 0.500000
vt 0.406250 1.000000
vt 0.375000 0.500000
vt 0.375000 1.000000
vt 0.343750 0.500000
vt 0.343750 1.000000
vt 0.312500 0.500000
vt 0.312500 1.000000
vt 0.281250 0.500000
vt 0.281250 1.000000
vt 0.250000 0.500000
vt 0.250000 1.000000
vt 0.218750 0.500000
vt 0.218750 1.000000
vt 0.187500 0.500000
vt 0.187500 1.000000
vt 0.156250 0.500000
vt 0.156250 1.000000
vt 0.125000 0.500000
vt 0.125000 1.000000
vt 0.093750 0.500000
vt 0.093750 1.000000
vt 0.062500 0.500000
vt 0.471731 0.341844
vt 0.341844 0.471731
vt 0.158156 0.028269
vt 0.062500 1.000000
vt 0.031250 0.500000
vt 0.031250 1.000000
vt 0.000000 0.500000
vt 0.985388 0.296822
vt 0.796822 0.014612
vt 0.514612 0.203178
vt 1.000000 1.000000
vt 0.968750 0.500000
vt 1.000000 0.500000
vt 0.968750 1.000000
vt 0.937500 0.500000
vt 0.937500 1.000000
vt 0.906250 0.500000
vt 0.906250 1.000000
vt 0.875000 0.500000
vt 0.875000 1.000000
vt 0.843750 0.500000
vt 0.843750 1.000000
vt 0.812500 0.500000
vt 0.812500 1.000000
vt 0.781250 0.500000
vt 0.781250 1.000000
vt 0.750000 0.500000
vt 0.750000 1.000000
vt 0.718750 0.500000
vt 0.718750 1.000000
vt 0.687500 0.500000
vt 0.687500 1.000000
vt 0.656250 0.500000
vt 0.656250 1.000000
vt 0.625000 0.500000
vt 0.625000 1.000000
vt 0.593750 0.500000
vt 0.593750 1.000000
vt 0.562500 0.500000
vt 0.562500 1.000000
vt 0.531250 0.500000
vt 0.531250 1.000000
vt 0.500000 0.500000
vt 0.500000 1.000000
vt 0.468750 0.500000
vt 0.468750 1.000000
vt 0.437500 0.500000
vt 0.437500 1.000000
vt 0.406250 0.500000
vt 0.406250 1.000000
vt 0.375000 0.500000
vt 0.375000 1.000000
vt 0.343750 0.500000
vt 0.343750 1.000000
vt 0.312500 0.500000
vt 0.312500 1.000000
vt 0.281250 0.500000
vt 0.281250 1.000000
vt 0.250000 0.500000
vt 0.250000 1.000000
vt 0.218750 0.500000
vt 0.218750 1.000000
vt 0.187500 0.500000
vt 0.187500 1.000000
vt 0.156250 0.500000
vt 0.156250 1.000000
vt 0.125000 0.500000
vt 0.125000 1.000000
vt 0.093750 0.500000
vt 0.093750 1.000000
vt 0.062500 0.500000
vt 0.158156 0.028269
vt 0.471731 0.158156
vt 0.341844 0.471731
vt 0.062500 1.000000
vt 0.031250 0.500000
vt 0.031250 1.000000
vt 0.000000 0.500000
vt 0.703178 0.485388
vt 0.985388 0.296822
vt 0.796822 0.014611
vt 0.937500 1.000000
vt 0.468750 1.000000
vt 0.296822 0.485388
vt 0.250000 0.490000
vt 0.203178 0.485388
vt 0.158156 0.471731
vt 0.116663 0.449553
vt 0.080294 0.419706
vt 0.050447 0.383337
vt 0.028269 0.341844
vt 0.014612 0.296822
vt 0.010000 0.250000
vt 0.014612 0.203178
vt 0.028269 0.158156
vt 0.050447 0.116663
vt 0.080294 0.080294
vt 0.116663 0.050447
vt 0.203178 0.014612
vt 0.250000 0.010000
vt 0.296822 0.014612
vt 0.341844 0.028269
vt 0.383337 0.050447
vt 0.471731 0.158156
vt 0.419706 0.080294
vt 0.449553 0.116663
vt 0.485388 0.203178
vt 0.490000 0.250000
vt 0.485388 0.296822
vt 0.449553 0.383337
vt 0.419706 0.419706
vt 0.383337 0.449553
vt 0.000000 1.000000
vt 0.703178 0.485388
vt 0.750000 0.490000
vt 0.796822 0.485388
vt 0.841844 0.471731
vt 0.883337 0.449553
vt 0.919706 0.419706
vt 0.949553 0.383337
vt 0.971731 0.341844
vt 0.990000 0.250000
vt 0.985388 0.203178
vt 0.971731 0.158156
vt 0.949553 0.116663
vt 0.919706 0.080294
vt 0.883337 0.050447
vt 0.841844 0.028269
vt 0.750000 0.010000
vt 0.616663 0.050447
vt 0.703178 0.014612
vt 0.658156 0.028269
vt 0.580294 0.080294
vt 0.550447 0.116663
vt 0.528269 0.158156
vt 0.510000 0.250000
vt 0.514612 0.296822
vt 0.528269 0.341844
vt 0.550447 0.383337
vt 0.580294 0.419706
vt 0.616663 0.449553
vt 0.658156 0.471731
vt 0.296822 0.485388
vt 0.158156 0.471731
vt 0.250000 0.490000
vt 0.203178 0.485388
vt 0.116663 0.449553
vt 0.080294 0.419706
vt 0.050447 0.383337
vt 0.028269 0.341844
vt 0.014612 0.296822
vt 0.010000 0.250000
vt 0.014612 0.203178
vt 0.028269 0.158156
vt 0.050447 0.116663
vt 0.080294 0.080294
vt 0.116663 0.050447
vt 0.203178 0.014611
vt 0.250000 0.010000
vt 0.296822 0.014611
vt 0.341844 0.028269
vt 0.383337 0.050447
vt 0.419706 0.080294
vt 0.449553 0.116663
vt 0.485388 0.203178
vt 0.471731 0.341844
vt 0.490000 0.250000
vt 0.485388 0.296822
vt 0.449553 0.383337
vt 0.419706 0.419706
vt 0.383337 0.449553
vt 0.000000 1.000000
vt 0.750000 0.490000
vt 0.883337 0.449553
vt 0.796822 0.485388
vt 0.841844 0.471731
vt 0.919706 0.419706
vt 0.949553 0.383337
vt 0.971731 0.341844
vt 0.990000 0.250000
vt 0.985388 0.203178
vt 0.971731 0.158156
vt 0.949553 0.116663
vt 0.919706 0.080294
vt 0.883337 0.050447
vt 0.841844 0.028269
vt 0.750000 0.010000
vt 0.616663 0.050447
vt 0.703178 0.014611
vt 0.658156 0.028269
vt 0.580294 0.080294
vt 0.550447 0.116663
vt 0.528269 0.158156
vt 0.514612 0.203178
vt 0.510000 0.250000
vt 0.514612 0.296822
vt 0.528269 0.341844
vt 0.550447 0.383337
vt 0.580294 0.419706
vt 0.616663 0.449553
vt 0.658156 0.471731
vn 0.0980 0.0222 -0.9949
vn 0.2902 0.0222 -0.9567
vn 0.4713 0.0222 -0.8817
vn 0.6342 0.0222 -0.7728
vn 0.7728 0.0222 -0.6342
vn 0.8817 0.0222 -0.4713
vn 0.9567 0.0222 -0.2902
vn 0.9949 0.0222 -0.0980
vn 0.9949 0.0222 0.0980
vn 0.9567 0.0222 0.2902
vn 0.8817 0.0222 0.4713
vn 0.7728 0.0222 0.6342
vn 0.6342 0.0222 0.7728
vn 0.4713 0.0222 0.8817
vn 0.2902 0.0222 0.9567
vn 0.0980 0.0222 0.9949
vn -0.0980 0.0222 0.9949
vn -0.2902 0.0222 0.9567
vn -0.4713 0.0222 0.8817
vn -0.6342 0.0222 0.7728
vn -0.7728 0.0222 0.6342
vn -0.8817 0.0222 0.4713
vn -0.9567 0.0222 0.2902
vn -0.9949 0.0222 0.0980
vn -0.9949 0.0222 -0.0980
vn -0.9567 0.0222 -0.2902
vn -0.8817 0.0222 -0.4713
vn -0.7728 0.0222 -0.6342
vn -0.6342 0.0222 -0.7728
vn -0.4713 0.0222 -0.8817
vn 0.0000 1.0000 -0.0000
vn -0.2902 0.0222 -0.9567
vn -0.0980 0.0222 -0.9949
vn 0.0000 -1.0000 0.0000
vn 0.0980 0.0000 -0.9952
vn 0.2903 0.0000 -0.9569
vn 0.4714 0.0000 -0.8819
vn 0.6344 0.0000 -0.7730
vn 0.7730 0.0000 -0.6344
vn 0.8819 0.0000 -0.4714
vn 0.9569 0.0000 -0.2903
vn 0.9952 0.0000 -0.0980
vn 0.9952 0.0000 0.0980
vn 0.9569 0.0000 0.2903
vn 0.8819 0.0000 0.4714
vn 0.7730 0.0000 0.6344
vn 0.6344 0.0000 0.7730
vn 0.4714 0.0000 0.8819
vn 0.2903 0.0000 0.9569
vn 0.0980 0.0000 0.9952
vn -0.0980 0.0000 0.9952
vn -0.2903 0.0000 0.9569
vn -0.4714 0.0000 0.8819
vn -0.6344 0.0000 0.7730
vn -0.7730 0.0000 0.6344
vn -0.8819 0.0000 0.4714
vn -0.9569 0.0000 0.2903
vn -0.9952 0.0000 0.0980
vn -0.9952 0.0000 -0.0980
vn -0.9569 0.0000 -0.2903
vn -0.8819 0.0000 -0.4714
vn -0.7730 0.0000 -0.6344
vn -0.6344 0.0000 -0.7730
vn -0.4714 0.0000 -0.8819
vn -0.2903 0.0000 -0.9569
vn -0.0980 0.0000 -0.9952
s off
f 2/1/1 3/2/1 1/3/1
f 4/4/2 5/5/2 3/2/2
f 5/5/3 8/6/3 7/7/3
f 8/6/4 9/8/4 7/7/4
f 10/9/5 11/10/5 9/8/5
f 12/11/6 13/12/6 11/10/6
f 14/13/7 15/14/7 13/12/7
f 16/15/8 17/16/8 15/14/8
f 18/17/9 19/18/9 17/16/9
f 20/19/10 21/20/10 19/18/10
f 22/21/11 23/22/11 21/20/11
f 24/23/12 25/24/12 23/22/12
f 26/25/13 27/26/13 25/24/13
f 28/27/14 29/28/14 27/26/14
f 30/29/15 31/30/15 29/28/15
f 32/31/16 33/32/16 31/30/16
f 34/33/17 35/34/17 33/32/17
f 35/34/18 38/35/18 37/36/18
f 38/35/19 39/37/19 37/36/19
f 40/38/20 41/39/20 39/37/20
f 42/40/21 43/41/21 41/39/21
f 44/42/22 45/43/22 43/41/22
f 46/44/23 47/45/23 45/43/23
f 48/46/24 49/47/24 47/45/24
f 50/48/25 51/49/25 49/47/25
f 52/50/26 53/51/26 51/49/26
f 54/52/27 55/53/27 53/51/27
f 56/54/28 57/55/28 55/53/28
f 58/56/29 59/57/29 57/55/29
f 60/58/30 61/59/30 59/57/30
f 14/60/31 6/61/31 38/62/31
f 62/63/32 63/64/32 61/59/32
f 64/65/33 1/66/33 63/64/33
f 15/67/34 31/68/34 47/69/34
f 66/70/35 67/71/35 65/72/35
f 68/73/36 69/74/36 67/71/36
f 70/75/37 71/76/37 69/74/37
f 72/77/38 73/78/38 71/76/38
f 74/79/39 75/80/39 73/78/39
f 76/81/40 77/82/40 75/80/40
f 78/83/41 79/84/41 77/82/41
f 80/85/42 81/86/42 79/84/42
f 82/87/43 83/88/43 81/86/43
f 84/89/44 85/90/44 83/88/44
f 86/91/45 87/92/45 85/90/45
f 88/93/46 89/94/46 87/92/46
f 90/95/47 91/96/47 89/94/47
f 92/97/48 93/98/48 91/96/48
f 94/99/49 95/100/49 93/98/49
f 96/101/50 97/102/50 95/100/50
f 98/103/51 99/104/51 97/102/51
f 100/105/52 101/106/52 99/104/52
f 102/107/53 103/108/53 101/106/53
f 104/109/54 105/110/54 103/108/54
f 106/111/55 107/112/55 105/110/55
f 108/113/56 109/114/56 107/112/56
f 110/115/57 111/116/57 109/114/57
f 112/117/58 113/118/58 111/116/58
f 114/119/59 115/120/59 113/118/59
f 116/121/60 117/122/60 115/120/60
f 118/123/61 119/124/61 117/122/61
f 120/125/62 121/126/62 119/124/62
f 122/127/63 123/128/63 121/126/63
f 124/129/64 125/130/64 123/128/64
f 102/131/31 86/132/31 70/133/31
f 126/134/65 127/135/65 125/130/65
f 128/136/66 65/137/66 127/135/66
f 127/138/34 79/139/34 95/140/34
f 2/1/1 4/4/1 3/2/1
f 4/4/2 6/141/2 5/5/2
f 5/5/3 6/141/3 8/6/3
f 8/6/4 10/9/4 9/8/4
f 10/9/5 12/11/5 11/10/5
f 12/11/6 14/13/6 13/12/6
f 14/13/7 16/15/7 15/14/7
f 16/15/8 18/17/8 17/16/8
f 18/17/9 20/19/9 19/18/9
f 20/19/10 22/21/10 21/20/10
f 22/21/11 24/23/11 23/22/11
f 24/23/12 26/25/12 25/24/12
f 26/25/13 28/27/13 27/26/13
f 28/27/14 30/29/14 29/28/14
f 30/29/15 32/31/15 31/30/15
f 32/31/16 34/33/16 33/32/16
f 34/33/17 36/142/17 35/34/17
f 35/34/18 36/142/18 38/35/18
f 38/35/19 40/38/19 39/37/19
f 40/38/20 42/40/20 41/39/20
f 42/40/21 44/42/21 43/41/21
f 44/42/22 46/44/22 45/43/22
f 46/44/23 48/46/23 47/45/23
f 48/46/24 50/48/24 49/47/24
f 50/48/25 52/50/25 51/49/25
f 52/50/26 54/52/26 53/51/26
f 54/52/27 56/54/27 55/53/27
f 56/54/28 58/56/28 57/55/28
f 58/56/29 60/58/29 59/57/29
f 60/58/30 62/63/30 61/59/30
f 6/61/31 4/143/31 2/144/31
f 2/144/31 64/145/31 62/146/31
f 62/146/31 60/147/31 58/148/31
f 58/148/31 56/149/31 62/146/31
f 56/149/31 54/150/31 62/146/31
f 54/150/31 52/151/31 50/152/31
f 50/152/31 48/153/31 54/150/31
f 48/153/31 46/154/31 54/150/31
f 46/154/31 44/155/31 38/62/31
f 44/155/31 42/156/31 38/62/31
f 42/156/31 40/157/31 38/62/31
f 38/62/31 36/158/31 34/159/31
f 34/159/31 32/160/31 30/161/31
f 30/161/31 28/162/31 22/163/31
f 28/162/31 26/164/31 22/163/31
f 26/164/31 24/165/31 22/163/31
f 22/163/31 20/166/31 18/167/31
f 18/167/31 16/168/31 22/163/31
f 16/168/31 14/60/31 22/163/31
f 14/60/31 12/169/31 10/170/31
f 10/170/31 8/171/31 6/61/31
f 6/61/31 2/144/31 54/150/31
f 2/144/31 62/146/31 54/150/31
f 38/62/31 34/159/31 22/163/31
f 34/159/31 30/161/31 22/163/31
f 14/60/31 10/170/31 6/61/31
f 54/150/31 46/154/31 6/61/31
f 46/154/31 38/62/31 6/61/31
f 22/163/31 14/60/31 38/62/31
f 62/63/32 64/65/32 63/64/32
f 64/65/33 2/172/33 1/66/33
f 63/173/34 1/174/34 3/175/34
f 3/175/34 5/176/34 7/177/34
f 7/177/34 9/178/34 11/179/34
f 11/179/34 13/180/34 15/67/34
f 15/67/34 17/181/34 19/182/34
f 19/182/34 21/183/34 15/67/34
f 21/183/34 23/184/34 15/67/34
f 23/184/34 25/185/34 27/186/34
f 27/186/34 29/187/34 31/68/34
f 31/68/34 33/188/34 39/189/34
f 33/188/34 35/190/34 39/189/34
f 35/190/34 37/191/34 39/189/34
f 39/189/34 41/192/34 43/193/34
f 43/193/34 45/194/34 47/69/34
f 47/69/34 49/195/34 51/196/34
f 51/196/34 53/197/34 47/69/34
f 53/197/34 55/198/34 47/69/34
f 55/198/34 57/199/34 59/200/34
f 59/200/34 61/201/34 63/173/34
f 63/173/34 3/175/34 7/177/34
f 7/177/34 11/179/34 15/67/34
f 23/184/34 27/186/34 15/67/34
f 27/186/34 31/68/34 15/67/34
f 39/189/34 43/193/34 47/69/34
f 55/198/34 59/200/34 47/69/34
f 59/200/34 63/173/34 47/69/34
f 63/173/34 7/177/34 15/67/34
f 31/68/34 39/189/34 47/69/34
f 63/173/34 15/67/34 47/69/34
f 66/70/35 68/73/35 67/71/35
f 68/73/36 70/75/36 69/74/36
f 70/75/37 72/77/37 71/76/37
f 72/77/38 74/79/38 73/78/38
f 74/79/39 76/81/39 75/80/39
f 76/81/40 78/83/40 77/82/40
f 78/83/41 80/85/41 79/84/41
f 80/85/42 82/87/42 81/86/42
f 82/87/43 84/89/43 83/88/43
f 84/89/44 86/91/44 85/90/44
f 86/91/45 88/93/45 87/92/45
f 88/93/46 90/95/46 89/94/46
f 90/95/47 92/97/47 91/96/47
f 92/97/48 94/99/48 93/98/48
f 94/99/49 96/101/49 95/100/49
f 96/101/50 98/103/50 97/102/50
f 98/103/51 100/105/51 99/104/51
f 100/105/52 102/107/52 101/106/52
f 102/107/53 104/109/53 103/108/53
f 104/109/54 106/111/54 105/110/54
f 106/111/55 108/113/55 107/112/55
f 108/113/56 110/115/56 109/114/56
f 110/115/57 112/117/57 111/116/57
f 112/117/58 114/119/58 113/118/58
f 114/119/59 116/121/59 115/120/59
f 116/121/60 118/123/60 117/122/60
f 118/123/61 120/125/61 119/124/61
f 120/125/62 122/127/62 121/126/62
f 122/127/63 124/129/63 123/128/63
f 124/129/64 126/134/64 125/130/64
f 70/133/31 68/202/31 126/203/31
f 68/202/31 66/204/31 126/203/31
f 66/204/31 128/205/31 126/203/31
f 126/203/31 124/206/31 122/207/31
f 122/207/31 120/208/31 126/203/31
f 120/208/31 118/209/31 126/203/31
f 118/209/31 116/210/31 114/211/31
f 114/211/31 112/212/31 110/213/31
f 110/213/31 108/214/31 106/215/31
f 106/215/31 104/216/31 102/131/31
f 102/131/31 100/217/31 98/218/31
f 98/218/31 96/219/31 94/220/31
f 94/220/31 92/221/31 90/222/31
f 90/222/31 88/223/31 86/132/31
f 86/132/31 84/224/31 78/225/31
f 84/224/31 82/226/31 78/225/31
f 82/226/31 80/227/31 78/225/31
f 78/225/31 76/228/31 74/229/31
f 74/229/31 72/230/31 70/133/31
f 118/209/31 114/211/31 110/213/31
f 110/213/31 106/215/31 102/131/31
f 102/131/31 98/218/31 94/220/31
f 94/220/31 90/222/31 102/131/31
f 90/222/31 86/132/31 102/131/31
f 78/225/31 74/229/31 70/133/31
f 70/133/31 126/203/31 118/209/31
f 118/209/31 110/213/31 70/133/31
f 110/213/31 102/131/31 70/133/31
f 86/132/31 78/225/31 70/133/31
f 126/134/65 128/136/65 127/135/65
f 128/136/66 66/231/66 65/137/66
f 127/138/34 65/232/34 71/233/34
f 65/232/34 67/234/34 71/233/34
f 67/234/34 69/235/34 71/233/34
f 71/233/34 73/236/34 75/237/34
f 75/237/34 77/238/34 79/139/34
f 79/139/34 81/239/34 83/240/34
f 83/240/34 85/241/34 87/242/34
f 87/242/34 89/243/34 91/244/34
f 91/244/34 93/245/34 95/140/34
f 95/140/34 97/246/34 103/247/34
f 97/246/34 99/248/34 103/247/34
f 99/248/34 101/249/34 103/247/34
f 103/247/34 105/250/34 107/251/34
f 107/251/34 109/252/34 103/247/34
f 109/252/34 111/253/34 103/247/34
f 111/253/34 113/254/34 115/255/34
f 115/255/34 117/256/34 119/257/34
f 119/257/34 121/258/34 123/259/34
f 123/259/34 125/260/34 127/138/34
f 71/233/34 75/237/34 127/138/34
f 75/237/34 79/139/34 127/138/34
f 79/139/34 83/240/34 87/242/34
f 87/242/34 91/244/34 79/139/34
f 91/244/34 95/140/34 79/139/34
f 111/253/34 115/255/34 119/257/34
f 119/257/34 123/259/34 127/138/34
f 95/140/34 103/247/34 111/253/34
f 111/253/34 119/257/34 95/140/34
f 119/257/34 127/138/34 95/140/34
